<svg xmlns="http://www.w3.org/2000/svg" width="59" height="44" viewBox="0 0 59 44" fill="none"><path d="M13.2977 17.4125C12.6473 17.4125 12.0232 17.5117 11.4019 17.6021C11.6032 16.9254 11.8102 16.2371 12.1427 15.6188C12.4752 14.7204 12.9944 13.9417 13.5107 13.1571C13.9423 12.3083 14.7036 11.7338 15.2636 11.0075C15.8498 10.3017 16.649 9.83208 17.2819 9.24583C17.9032 8.63333 18.7169 8.32708 19.3644 7.89542C20.0411 7.5075 20.6302 7.07875 21.2602 6.87458L22.8323 6.22708L24.2148 5.6525L22.8002 0L21.059 0.419999C20.5019 0.559999 19.8223 0.723332 19.0494 0.918749C18.259 1.06458 17.4161 1.46417 16.4769 1.82875C15.5494 2.24292 14.4761 2.52292 13.4786 3.18792C12.4752 3.82375 11.3173 4.35458 10.2965 5.20625C9.30775 6.08417 8.11483 6.84542 7.234 7.9625C6.2715 9.00667 5.32066 10.1033 4.58275 11.3517C3.72816 12.5417 3.14775 13.8483 2.53525 15.1404C1.98108 16.4325 1.53483 17.7538 1.17025 19.0371C0.478996 21.6096 0.16983 24.0538 0.0502462 26.145C-0.0489205 28.2392 0.00941282 29.9804 0.131913 31.2404C0.175663 31.8354 0.25733 32.4129 0.315663 32.8125L0.388579 33.3025L0.464413 33.285C0.983174 35.7083 2.17738 37.9351 3.90889 39.708C5.6404 41.4809 7.83845 42.7274 10.2488 43.3032C12.6591 43.8791 15.1832 43.7608 17.5291 42.962C19.875 42.1632 21.9468 40.7167 23.5049 38.7896C25.063 36.8625 26.0437 34.5337 26.3335 32.0725C26.6234 29.6114 26.2105 27.1185 25.1427 24.8821C24.0749 22.6458 22.3958 20.7575 20.2996 19.4356C18.2035 18.1138 15.7759 17.4123 13.2977 17.4125ZM45.3811 17.4125C44.7307 17.4125 44.1065 17.5117 43.4852 17.6021C43.6865 16.9254 43.8936 16.2371 44.2261 15.6188C44.5586 14.7204 45.0777 13.9417 45.594 13.1571C46.0257 12.3083 46.7869 11.7338 47.3469 11.0075C47.9332 10.3017 48.7323 9.83208 49.3652 9.24583C49.9865 8.63333 50.8002 8.32708 51.4477 7.89542C52.1244 7.5075 52.7136 7.07875 53.3436 6.87458L54.9157 6.22708L56.2982 5.6525L54.8836 0L53.1423 0.419999C52.5852 0.559999 51.9057 0.723332 51.1327 0.918749C50.3423 1.06458 49.4994 1.46417 48.5602 1.82875C47.6357 2.24583 46.5594 2.52292 45.5619 3.19083C44.5586 3.82667 43.4007 4.3575 42.3798 5.20917C41.3911 6.08708 40.1982 6.84833 39.3173 7.9625C38.3548 9.00667 37.404 10.1033 36.6661 11.3517C35.8115 12.5417 35.2311 13.8483 34.6186 15.1404C34.0644 16.4325 33.6182 17.7538 33.2536 19.0371C32.5623 21.6096 32.2532 24.0538 32.1336 26.145C32.0344 28.2392 32.0927 29.9804 32.2152 31.2404C32.259 31.8354 32.3407 32.4129 32.399 32.8125L32.4719 33.3025L32.5477 33.285C33.0665 35.7083 34.2607 37.9351 35.9922 39.708C37.7237 41.4809 39.9218 42.7274 42.3321 43.3032C44.7424 43.8791 47.2665 43.7608 49.6124 42.962C51.9583 42.1632 54.0302 40.7167 55.5883 38.7896C57.1464 36.8625 58.1271 34.5337 58.4169 32.0725C58.7067 29.6114 58.2939 27.1185 57.2261 24.8821C56.1583 22.6458 54.4791 20.7575 52.383 19.4356C50.2868 18.1138 47.8592 17.4123 45.3811 17.4125Z" fill="white"></path></svg>