<svg width="180" height="75" viewBox="0 0 180 75" fill="none" xmlns="http://www.w3.org/2000/svg"><g clip-path="url(#clip0_328_99608)"><path d="M21.6693 49.5205C23.9511 48.9063 23.9079 46.5679 23.9079 46.5679V43.4429C23.9079 39.6875 18.8156 39.4558 18.8156 39.4558H0V60.6843H18.5028C22.2249 60.6843 24.1075 58.4968 24.1075 56.8481V52.139C24.1075 51.8373 23.9133 50.3718 21.6747 49.5205M4.21841 42.6563H17.6073C17.6073 42.6563 19.846 42.5485 19.846 44.3373V46.5679C19.846 47.2468 19.1501 48.0765 17.7691 48.0765H4.21841V42.6563ZM20.1049 55.9591C20.1049 56.6433 19.409 57.4731 18.028 57.4731H4.21841V51.2985H17.8608C17.8608 51.2985 20.0995 51.1961 20.0995 52.9795V55.9591H20.1049Z" fill="white"></path><path d="M27.8567 39.4558H31.9348V47.8502H49.1807V39.4558H53.2427V60.7705H49.1483V51.0938H31.9348V60.6789H27.8567V39.4558Z" fill="white"></path><path d="M55.0983 60.7705L69.3071 39.4504H72.3711L86.3372 60.7705H81.6656L70.7204 43.7392L59.7159 60.7705H55.0983Z" fill="white"></path><path d="M92.4167 39.4504H88.3224V60.7705H92.4167V39.4504Z" fill="white"></path><path d="M94.2886 39.4558H99.7045L110.035 49.1164L120.441 39.4558H125.695L112.117 52.1498V60.7705H108.06V52.1767L94.2886 39.4558Z" fill="white"></path><path d="M118.833 60.7705L133.058 39.4504H136.133L150.131 60.7705H145.379L134.585 43.6961L123.526 60.7705H118.833Z" fill="white"></path><path d="M100.444 36.875L127.07 12.8718L129.6 26.1638L118.143 36.875H100.444Z" fill="white"></path><path d="M135.259 20.7812L129.6 26.1638L127.07 12.8718L135.259 20.7812Z" fill="#D1D1D1"></path><path class="menu-white" d="M143.653 12.8718L180 46.1099H162.301L127.07 12.8718H143.653Z" fill="#39B54A"></path><path class="menu-white" d="M157.338 6.0722L167.798 0V18.4644L157.338 24.4774V6.0722Z" fill="#39B54A"></path><path d="M60.8271 64.1595H62.8716V68.4052H71.5458V64.1595H73.7089V75H71.535V70.097H62.8716V75H60.8271V64.1595Z" fill="white"></path><path d="M86.2348 64.181H77.3718C75.9746 64.181 74.8364 65.3233 74.8364 66.7187V72.4299C74.8364 73.8308 75.9692 74.9623 77.3718 74.9623H86.2348C87.6319 74.9623 88.7647 73.8308 88.7647 72.4299V66.7187C88.7647 65.3233 87.6319 64.181 86.2348 64.181ZM86.7472 72.3491C86.7472 72.8664 86.3211 73.2974 85.7978 73.2974H77.9112C77.388 73.2974 76.9672 72.8664 76.9672 72.3491V66.8103C76.9672 66.2823 77.388 65.8567 77.9112 65.8567H85.7978C86.3211 65.8567 86.7472 66.2823 86.7472 66.8103V72.3491Z" fill="white"></path><path d="M90.0216 64.181H92.0877V72.6131C92.0877 72.6131 92.0607 73.2705 92.9669 73.2705H100.524C101.064 73.2705 101.334 72.9149 101.334 72.5862V64.181H103.486V72.7856C103.486 72.7856 103.572 74.9623 100.724 74.9623H92.7242C91.6022 74.9623 90.027 74.4343 90.027 73.0657V64.1864L90.0216 64.181Z" fill="white"></path><path d="M104.754 75V73.2974H114.582C114.582 73.2974 115.467 73.2381 115.467 72.5215V70.8728C115.467 70.1886 114.857 70.097 114.588 70.097H107.348C106.469 70.097 104.408 69.5366 104.408 67.5808V66.681C104.408 66.417 104.408 64.181 107.041 64.181H116.95V65.8728H107.478C107.478 65.8728 106.566 65.8836 106.566 66.6649C106.566 67.0205 106.561 67.3976 106.561 67.667C106.561 67.9849 106.992 68.3944 107.634 68.3944H115.019C115.672 68.3944 117.63 69.0086 117.63 71.0075V72.5646C117.63 73.028 117.199 75.0054 114.615 75.0054H104.759L104.754 75Z" fill="white"></path><path d="M120.7 64.181H118.682V75H120.7V64.181Z" fill="white"></path><path d="M122.075 75V64.181H123.995L134.531 72.0259V64.181H136.457V75H135.281L124.006 66.7834V75H122.075Z" fill="white"></path><path d="M147.984 69.0787H150.034V73.1789C150.034 73.1789 149.851 75 146.852 75H140.659C138.717 75 137.595 73.7877 137.595 73.1789V66.2069C137.595 64.9838 139.235 64.181 140.432 64.181H149.926V65.8728H140.513C140.13 65.8728 139.769 66.1261 139.769 66.3739V72.7155C139.769 73.0172 140.13 73.2866 140.934 73.2866H146.852C147.461 73.2866 147.968 72.8502 147.968 72.4407C147.968 72.0312 147.984 69.0787 147.984 69.0787Z" fill="white"></path></g><defs><clipPath id="clip0_328_99608"><rect width="180" height="75" fill="white"></rect></clipPath></defs></svg>
