<svg width="72" height="69" viewBox="0 0 72 69" fill="none" xmlns="http://www.w3.org/2000/svg">
<g clip-path="url(#clip0_338_259158)">
<path d="M3.74999 62.8501C5.12999 60.6201 6.89999 60.1701 8.64999 61.5901C8.63999 61.7101 8.58999 61.8201 8.49999 61.9001C8.43999 61.9501 8.34999 61.9901 8.25999 61.9901C8.25999 62.1901 8.47999 62.0401 8.54999 62.1501C9.04999 62.5701 9.23999 63.1701 9.50999 63.7301C9.29999 64.3501 10.23 64.0301 10.17 64.5201C10.05 64.9401 9.63999 65.0401 9.35999 65.2901C8.70999 65.4501 8.04999 65.6801 7.48999 65.0701C7.42999 64.9401 7.39999 64.8001 7.39999 64.6601C6.94999 63.6601 6.09999 64.0901 5.37999 64.1101C3.69999 64.5201 3.65999 64.4901 3.75999 62.8501H3.74999Z" fill="#C6A565"/>
<path d="M21.73 50.81C22.81 50.99 23.48 51.65 23.47 52.71C23.47 53.52 22.67 53.71 21.99 53.95C20.89 54.34 19.94 53.93 19.28 53.21C18.88 52.78 18.97 51.84 19.78 51.5C20.35 51.27 20.74 50.56 21.5 50.84C21.56 50.98 21.31 51.02 21.39 51.16C21.52 51.05 21.64 50.94 21.73 50.79V50.81Z" fill="#D3BA85"/>
<path d="M7.76001 64.6101C7.67001 64.6801 7.58001 64.7401 7.49001 64.8101C6.65001 65.3201 7.20001 65.9401 7.35001 66.5201C7.52001 66.8701 7.84001 67.1901 7.52001 67.6201C7.10001 68.2601 6.52001 68.1501 5.93001 67.9401C5.22001 68.1501 6.39001 67.4001 5.66001 67.4401C4.98001 67.4701 3.65001 67.6601 4.63001 66.1701C4.69001 66.0701 4.48001 66.1401 4.41001 66.1401C4.10001 66.1401 3.86001 65.9101 3.56001 65.8901C2.71001 64.8201 3.40001 63.8501 3.75001 62.8601C3.95001 63.8101 4.28001 64.5001 5.37001 63.6701C5.40001 64.2401 5.82001 64.0101 6.13001 64.0701C6.70001 64.1701 7.43001 63.8101 7.76001 64.6101Z" fill="#CDAE6D"/>
<path d="M37.9 63.23C38.58 63.33 38.7 64.04 39.15 64.41C40.11 65.19 39.57 65.51 38.66 65.62C38.23 65.95 37.7 65.79 37.23 65.9C37.05 65.94 36.87 65.96 36.69 65.96C36.45 65.94 36.21 65.91 35.98 66C35.68 66.11 35.38 66.27 35.04 66.21C34.67 66.03 34.6 65.69 34.6 65.32C34.61 65.11 34.66 64.91 34.73 64.71C34.98 64.32 35.03 63.86 35.15 63.43C35.83 63.08 36.38 62.24 37.31 62.85C37.49 62.99 37.48 63.42 37.88 63.23H37.9Z" fill="#BE9950"/>
<path d="M19.03 40.6899C20.26 40.9499 21.43 41.2699 21.08 42.9499C21.08 43.1099 21.02 43.2499 20.92 43.3799C20.45 43.8599 19.92 44.0499 19.29 43.6699C19.19 43.5999 19.1 43.5099 19.03 43.4099C19.02 43.3299 18.98 43.2499 18.93 43.1799C18.8 43.2999 18.84 43.4699 18.77 43.6199C18.71 43.8099 18.62 43.9799 18.5 44.1299C18.03 44.4299 17.48 44.5499 16.96 44.7299C16.63 44.5399 16.41 44.2399 16.22 43.9199C16.06 43.6499 15.95 43.3699 15.97 43.0499C16.34 42.2399 17.05 42.3799 17.73 42.4199C17.87 42.3899 18.02 42.4699 18.15 42.3899C17.96 42.3899 17.78 42.3499 17.6 42.2899C17.42 42.1399 17.34 41.9399 17.36 41.7099C17.75 41.0999 18.27 40.6999 19.03 40.6899Z" fill="#E7D290"/>
<path d="M43.69 33.22C43.18 33.03 42.66 32.83 42.37 32.32C42.08 32.17 41.95 31.96 42.12 31.64C42.57 31.44 42.94 31.64 43.34 31.86C43.58 31.99 43.34 31.75 43.4 31.71C43.44 30.18 44.53 30.76 45.33 30.74C45.59 30.76 45.85 30.79 46.1 30.81C46.52 30.93 46.96 30.53 47.36 30.86C47.44 30.95 47.51 31.06 47.56 31.17C47.78 31.84 48.49 31.15 48.78 31.61C48.81 31.98 48.56 32.09 48.27 32.14C47.71 32.34 47.26 32.83 46.61 32.79C45.52 32.12 44.7 33.35 43.69 33.21V33.22Z" fill="#CFB37B"/>
<path d="M22.04 10.31C21.32 10.05 21.49 9.43004 21.48 8.89004C21.56 8.49004 21.49 8.06004 21.74 7.70004V7.68004C22.28 7.38004 22.58 6.74004 23.26 6.68004C24.36 6.35004 24.98 6.89004 25.38 7.84004C25.51 9.07004 24.61 9.09004 23.83 9.04004C22.99 8.98004 22.64 9.32004 22.58 10.09C22.45 10.28 22.28 10.38 22.04 10.32V10.31Z" fill="#D6B975"/>
<path d="M47.39 31.2C47.34 31.11 47.28 31.02 47.23 30.94C46.88 30.56 47.79 29.9 46.93 29.64C46.77 29.5 46.68 29.33 46.68 29.12C46.86 28.58 47.23 28.17 47.6 27.76C48.1 27.94 48.31 27.6 48.5 27.25C48.79 28.55 50.14 29.56 49.5 31.12C49.26 31.72 49.01 32.2 48.27 32.15C48.45 31.97 48.66 31.81 48.6 31.5C48.34 30.81 47.71 31.64 47.39 31.21V31.2Z" fill="#E3CE8F"/>
<path d="M19.03 40.6899C18.43 40.9599 18.11 41.6499 17.41 41.7699C17.26 42.4199 16.65 42.4699 16.19 42.7099C15.76 43.0999 15.63 43.7199 15.15 44.0799C14.74 44.3299 14.52 44.7699 14.15 45.0599C13.94 45.1099 13.74 45.1199 13.69 44.8399C13.52 43.8499 13.97 43.0899 14.65 42.4399C14.89 41.8199 15.62 41.5999 15.87 40.9799C16.88 40.3799 17.87 39.6999 19.03 40.6899Z" fill="#DFC782"/>
<path d="M42.78 28.4501C43.57 27.6101 44.17 26.5001 45.51 26.3801C45.7 26.3601 45.89 26.3601 46.08 26.3501C46.27 26.6201 46.41 26.9101 46.39 27.2601C46.37 27.8501 46.44 28.4601 46.07 28.9801C45.66 29.3801 45.53 30.0901 44.8 30.1501C43.7 30.0501 43.66 29.5701 44.34 28.8501C44.49 28.7201 44.27 28.8501 44.43 28.7401C44.5 28.6801 44.58 28.6401 44.68 28.6101C44.59 28.4901 44.55 28.6701 44.47 28.6501C44.27 28.9501 44.04 29.2101 43.7 29.3501C43.47 29.5501 43.26 29.8001 42.93 29.8501C42.81 29.8101 42.7 29.7501 42.62 29.6501C42.55 29.5501 42.51 29.4301 42.5 29.3001C42.59 29.0101 42.75 28.7501 42.79 28.4501H42.78Z" fill="#DBC288"/>
<path d="M38.97 66.08C40.2 66 39.77 66.9 39.35 67.05C38.68 67.28 38.84 67.86 38.52 68.2C38.21 68.32 37.79 67.98 37.56 68.43C36.17 68.63 34.96 68.25 33.89 67.34C33.54 67.04 33.51 66.8 33.84 66.5C34.49 66.57 34.98 67.22 35.7 67.04C36.1 67.05 36.41 66.87 36.69 66.61C37.35 66 38.26 66.49 38.97 66.08Z" fill="#CBAB64"/>
<path d="M69.49 4.35004C70.24 4.60004 70.7 5.22004 71.04 5.82004C71.61 6.82004 70.88 7.24004 70.03 7.48004C69.81 7.43004 69.7 7.28004 69.66 7.07004C70.18 6.28004 69.24 6.92004 69.24 6.64004C68.88 6.48004 68.51 6.52004 68.13 6.57004C67.47 6.67004 67.31 6.27004 67.34 5.71004C67.48 5.34004 67.86 5.15004 68.03 4.79004C68.55 4.86004 68.87 4.42004 69.3 4.29004C69.36 4.31004 69.43 4.32004 69.49 4.34004V4.35004Z" fill="#DCC27D"/>
<path d="M28.77 19.9201C28.23 19.0201 28.88 18.5601 29.35 18.2401C29.88 17.8801 30.6 17.7601 31.05 18.4901C31.42 19.0901 31.34 19.7201 30.73 20.0501C30.07 20.4001 29.32 20.5001 28.76 19.9201H28.77Z" fill="#DECA9D"/>
<path d="M37.46 34.7001C36.91 34.0101 37.24 33.3501 37.84 33.1601C38.55 32.9401 39.51 32.6401 39.98 33.7201C39.98 34.0901 40.08 34.4501 40.05 34.8201C39.74 35.2701 39.27 35.4601 38.79 35.6301C38.5 35.1001 37.83 35.1201 37.46 34.7001Z" fill="#CFB477"/>
<path d="M5.21 51.55C5.04 51.38 5.4 50.91 5.74 50.77C6.31 50.52 7.02 49.97 7.58 50.76C8.04 51.41 7.77 52.33 7.35 52.64C6.6 53.18 6.06 52.31 5.21 51.56V51.55Z" fill="#CDAF6D"/>
<path d="M0.060003 21.81C0.070003 20.26 1.2 20.07 2.32 20.15C3.3 20.22 3.91 20.86 3.76 21.96C2.79 21.16 3.13 22.73 2.55 22.63C2.36 22.72 2.16 22.73 1.97 22.63C1.88 22.53 1.84 22.41 1.86 22.27C1.91 21.61 1.31 22.24 1.18 21.94C0.840003 21.62 0.420003 21.92 0.0500031 21.81H0.060003Z" fill="#E8D59A"/>
<path d="M69.56 0.70988C70.77 1.74988 70.75 2.84988 69.49 4.34988H69.37C69.03 4.34988 68.67 4.40988 68.37 4.16988C68.14 3.97988 67.97 3.74988 67.86 3.47988C67.76 3.18988 67.73 2.89988 67.98 2.65988C68.18 2.52988 68.39 2.53988 68.6 2.63988C68.72 2.71988 68.82 2.80988 68.92 2.90988C69.11 3.09988 69.32 3.21988 69.45 2.88988C69.5 2.77988 69.77 2.58988 69.5 2.50988C69.38 2.46988 69.16 2.61988 68.96 2.59988C68.82 2.54988 68.69 2.46988 68.58 2.36988C68.3 2.07988 68.13 1.74988 68.17 1.32988C68.47 0.75988 68.98 0.64988 69.56 0.70988Z" fill="#DCC27D"/>
<path d="M67.44 5.65989C67.64 5.95989 67.61 6.60989 68.29 6.18989C68.73 5.91989 69.12 6.10989 69.41 6.50989C69.36 6.64989 69.27 6.69989 69.14 6.66989C69.07 6.66989 69.02 6.66989 69.01 6.66989C69 6.66989 68.99 6.66989 68.98 6.66989C69.16 6.57989 68.93 6.73989 69.12 6.66989C69.38 6.69989 69.59 6.80989 69.73 7.01989C69.82 7.16989 69.92 7.32989 70.01 7.47989C69.85 7.59989 69.69 7.71989 69.53 7.82989C69.18 7.79989 68.87 7.88989 68.64 8.15989C67.13 8.45989 67.02 7.32989 66.78 6.33989C67 6.10989 66.99 5.66989 67.43 5.63989L67.44 5.65989Z" fill="#D6BA76"/>
<path d="M19.1 48.8701C18.31 49.3001 17.49 49.1101 16.68 48.9401C16.57 48.9401 16.5 48.9001 16.47 48.8301C16.43 48.7501 16.42 48.7101 16.44 48.7001C16.57 48.1101 17.07 47.8701 17.51 47.5601C17.74 47.4201 18 47.3801 18.26 47.3801C18.52 47.3801 18.78 47.3501 19.03 47.3401C19.3 47.3401 19.57 47.3401 19.82 47.4901C20.62 48.4901 19.69 48.5901 19.1 48.8701Z" fill="#BF9D59"/>
<path d="M68.19 1.23996L68.82 2.27996C68.7 2.62996 68.19 2.33996 68.08 2.71996C67.94 2.95996 68.02 3.17996 68.14 3.39996C68.12 3.77996 68.14 4.17996 67.56 4.11996C67.11 3.78996 66.66 3.45996 66.21 3.13996C65.32 2.49996 66.52 2.37996 66.51 1.94996C66.56 1.64996 66.75 1.47996 67.02 1.39996C67.37 1.48996 67.71 1.46996 68 1.20996C68.06 1.20996 68.12 1.21996 68.18 1.22996L68.19 1.23996Z" fill="#CEAC60"/>
<path d="M22.51 10.0201C22.2 8.89009 22.48 8.58009 23.51 8.67009C24.24 8.73009 25.14 8.97009 25.38 7.84009C26.04 8.68009 25.57 9.20009 24.86 9.65009C24.8 9.67009 24.74 9.70009 24.69 9.72009C24.3 9.74009 23.98 9.94009 23.63 10.0801C23.45 10.1601 23.25 10.2201 23.05 10.2401C22.83 10.2401 22.65 10.1801 22.5 10.0201H22.51Z" fill="#EEDEA5"/>
<path d="M45.94 28.94C46.06 28.38 45.94 27.76 46.29 27.25C46.34 27.22 46.39 27.19 46.44 27.15C46.7 27.01 47 26.95 47.19 26.71C47.23 26.67 47.27 26.62 47.31 26.58C47.87 26.49 48.2 26.83 48.5 27.23C48.66 27.99 48.18 27.91 47.71 27.83C47.41 28.27 47.03 28.62 46.67 29.01C46.4 29.22 46.15 29.36 45.94 28.94Z" fill="#CFB172"/>
<path d="M15.99 28.38C16.12 29.24 15.57 29.46 14.88 29.58C14.27 29.69 13.84 29.49 13.54 28.95C13.18 28.28 13.45 27.84 14.03 27.5C14.6 27.97 15.19 28.4 15.99 28.38Z" fill="#F0E2BB"/>
<path d="M13.68 44.8399C13.81 44.8799 13.93 44.9199 14.06 44.9599C14.44 44.9799 14.57 44.5199 14.93 44.5099C15.42 44.4699 15.53 44.7699 15.45 45.1599C15.35 45.5999 15.27 46.0199 15.52 46.4399C15.54 46.5799 15.52 46.7099 15.46 46.8399C15.31 47.0799 15.18 47.3299 14.83 47.2899C13.9 46.7399 13.25 46.0399 13.67 44.8499L13.68 44.8399Z" fill="#EFE0AC"/>
<path d="M6.18001 6.16991C6.97001 6.45991 6.55001 6.98991 6.33001 7.35991C6.05001 7.83991 5.54001 7.69991 5.12001 7.52991C4.52001 7.29991 4.54001 6.72991 4.63001 6.25991C4.72001 5.75991 5.04001 5.44991 5.60001 5.81991C5.56001 6.32991 5.96001 6.09991 6.18001 6.16991Z" fill="#F0E3B8"/>
<path d="M3.56 65.88C4.08 65.58 4.73 66.11 5.23 65.55C5.4 66.32 4.36 66.26 4.51 67.01C5.15 67.05 5.85 67.56 6.52 66.67C6.61 67.37 5.85 67.42 5.94 67.93C4.49 68 3.93 67.04 3.56 65.87V65.88Z" fill="#DEC889"/>
<path d="M35.9 67.38C35.02 67.54 34.36 67.2 33.85 66.5C33.78 66.33 33.71 66.16 33.63 65.99C33.88 65.5 34.02 64.82 34.84 65.22C34.93 65.53 35.01 65.84 35.1 66.15C35.65 66.37 36.2 66.6 35.89 67.38H35.9Z" fill="#B99551"/>
<path d="M19.1 48.87C19.41 48.45 20.32 48.25 19.63 47.46C19.62 47.39 19.61 47.33 19.59 47.26C19.9 46.39 20.6 46.59 21.25 46.65C21.29 46.7 21.34 46.75 21.38 46.8C21.19 48.12 20.52 48.91 19.1 48.86V48.87Z" fill="#D9C082"/>
<path d="M15.99 28.38C14.93 28.98 14.28 28.69 14.03 27.5C15.23 26.59 15.7 27.28 15.99 28.38Z" fill="#D9C189"/>
<path d="M0.0599973 21.8099C0.429997 21.9999 0.779997 20.3399 1.16 21.8099C1.29 22.1599 1.9 21.9299 1.91 22.4299C1.96 23.0599 1.68 23.3799 1.02 23.3199C0.0299972 23.2499 -0.100003 22.6199 0.0599973 21.8199V21.8099Z" fill="#EDDCAA"/>
<path d="M43.69 33.22C44.13 32.94 44.55 32.63 44.98 32.36C45.49 32.05 46.24 31.98 46.61 32.79C45.7 33.35 44.77 33.8 43.69 33.21V33.22Z" fill="#DCC68F"/>
<path d="M7.52999 67.61C7.52999 67.26 7.34999 67.01 7.03999 66.86C7.45999 66.08 8.22999 65.77 8.98999 65.45C9.30999 65.49 9.59999 65.56 9.67999 65.93C9.74999 66.24 9.69999 66.52 9.45999 66.75C8.99999 67.46 8.17999 67.38 7.51999 67.65V67.62L7.52999 67.61Z" fill="#C5A25D"/>
<path d="M22.93 10.1099C23.11 9.9999 23.28 9.8999 23.46 9.7899C23.92 10.0199 24.35 9.9299 24.76 9.6599L24.88 9.6499C25.72 10.4799 24.62 10.6899 24.37 11.1399C24.01 11.7699 23.57 11.5199 23.19 11.0999C22.73 10.8699 22.67 10.5399 22.94 10.1199L22.93 10.1099Z" fill="#E8D59B"/>
<path d="M38.97 66.08C38.97 66.66 38.53 66.99 38.12 66.74C37.48 66.36 37.13 66.79 36.67 66.97C36.45 66.86 36.43 66.67 36.49 66.46C36.63 66.09 37.11 65.96 37.16 65.52C37.66 65.55 38.16 65.57 38.66 65.6C38.76 65.76 38.86 65.91 38.97 66.07V66.08Z" fill="#E8D697"/>
<path d="M39.66 13.3C39.25 13.46 38.81 13.49 38.57 13.13C38.35 12.8 38.38 12.37 38.82 12.11C39.26 11.86 39.6 12.02 39.82 12.39C40.01 12.7 39.99 13.05 39.66 13.3Z" fill="#DBC79B"/>
<path d="M22.16 45.8401C22.14 46.3601 21.66 46.4901 21.39 46.8001C21.36 46.7601 21.32 46.7301 21.28 46.7001C20.95 46.5401 20.53 46.5001 20.43 46.0401C20.35 45.3801 20.6 44.9601 21.29 44.8601C21.84 44.9501 22.14 45.2801 22.17 45.8401H22.16Z" fill="#CBAB65"/>
<path d="M2.31999 22.52C2.88999 22.57 2.70999 20.68 3.75999 21.96C3.82999 22.83 3.12999 23.09 2.55999 23.44C2.05999 23.25 2.09999 22.91 2.31999 22.52Z" fill="#E2CC92"/>
<path d="M9.44001 63.8901C8.81001 63.4701 8.76001 62.6901 8.31001 62.1501C8.29001 62.0101 8.32001 61.8801 8.39001 61.7601C8.47001 61.7001 8.56001 61.6401 8.64001 61.5801C9.72001 61.8401 9.39001 62.9801 9.90001 63.6001C9.85001 63.8601 9.68001 63.9301 9.43001 63.8901H9.44001Z" fill="#B99658"/>
<path d="M1.91 17.9C1.7 17.43 1.87 17.08 2.22 16.85C2.63 16.58 2.99 16.72 3.15 17.17C3.26 17.47 3.46 17.94 2.91 17.94C2.59 17.94 2.18 18.41 1.91 17.91V17.9Z" fill="#D6BD87"/>
<path d="M35.16 63.43C35.75 64 35.26 64.38 34.93 64.79C34.56 64.86 34.19 65.41 33.83 64.77C34.09 64.14 34.26 63.42 35.16 63.43Z" fill="#C5A15D"/>
<path d="M14.84 47.2799C14.97 47.0899 15.1 46.9 15.22 46.7C15.54 47.26 16.45 47.26 16.53 48.06C16.57 48.27 16.56 48.48 16.55 48.68C16.6 48.76 16.64 48.85 16.67 48.93C15.79 48.67 15.06 48.25 14.83 47.27L14.84 47.2799Z" fill="#D9C186"/>
<path d="M67.26 1.51C67.01 1.66 66.76 1.81 66.52 1.96C66.39 0.52 67.33 0.16 68.48 0C68.47 0.07 68.46 0.13 68.45 0.2C68.09 0.66 67.87 1.26 67.27 1.51H67.26Z" fill="#D5BA7B"/>
<path d="M15.87 40.98C16 41.29 16.13 41.59 16.38 42.21C15.42 41.17 15.36 42.78 14.65 42.44C14.52 41.5 15.32 41.35 15.87 40.98Z" fill="#F0E4B2"/>
<path d="M19.86 25.44C19.71 25.09 19.7 24.81 19.95 24.7C20.34 24.54 20.74 24.65 20.98 25.03C21.18 25.35 21 25.6 20.68 25.71C20.31 25.83 20.02 25.67 19.86 25.44Z" fill="#E6D4AC"/>
<path d="M22.16 45.8401C21.96 45.4301 21.61 45.1901 21.23 44.9901C20.91 44.8501 20.88 44.6201 21 44.3301C21.29 44.0901 21.61 43.8901 21.99 43.8301C22.44 44.4701 22.06 45.1701 22.16 45.8401Z" fill="#DCC17B"/>
<path d="M2.32 22.5199C2.4 22.8299 2.48 23.1299 2.56 23.4299C2 23.9199 1.49 23.8299 1.01 23.2999C1.43 23.1199 1.69 22.7899 1.9 22.3999C2.04 22.4399 2.18 22.4699 2.31 22.5099L2.32 22.5199Z" fill="#D4BD8F"/>
<path d="M28.7 12.96C28.47 12.61 28.53 12.34 28.93 12.16C29.14 12.07 29.35 11.85 29.55 12.14C29.77 12.47 29.66 12.81 29.44 13.07C29.18 13.37 28.93 13.21 28.7 12.96Z" fill="#D8C18C"/>
<path d="M37.46 34.7C38.05 34.8 38.94 34.47 38.79 35.63C38.17 35.57 37.39 35.75 37.46 34.7Z" fill="#FDF9E2"/>
<path d="M69.56 0.71C69.16 1.02 68.72 1.24 68.2 1.24C67.61 0.68 68.35 0.42 68.48 0.03V0C68.98 0.02 69.28 0.35 69.56 0.71Z" fill="#C5A463"/>
<path d="M7.45999 15.9401C7.26999 15.5001 7.45999 15.2901 7.74999 15.1401C7.98999 15.0101 8.24999 15.0201 8.38999 15.3001C8.53999 15.5901 8.54999 15.8901 8.20999 16.0601C7.90999 16.2101 7.62999 16.1401 7.45999 15.9401Z" fill="#D9C395"/>
<path d="M21.99 43.84C21.82 44.16 21.55 44.33 21.18 44.33C20.6 44.1 20.86 43.59 20.81 43.19C20.9 43.11 20.99 43.03 21.07 42.96C21.53 43.09 22.13 43.08 21.98 43.84H21.99Z" fill="#C8AA6B"/>
<path d="M7.53 67.64C7.91 66.76 8.87 67.15 9.47 66.74C9.04 67.51 8.51 68.05 7.53 67.64Z" fill="#E1C988"/>
<path d="M68.64 4.15988C68.91 4.10988 69.17 4.12988 69.37 4.33988C69 4.71988 68.65 5.12988 68.03 4.92988C67.84 5.22988 67.64 5.45988 67.4 4.96988C67.44 4.89988 67.49 4.83988 67.57 4.80988C67.81 4.40988 68.11 4.08988 68.64 4.15988Z" fill="#CAA75D"/>
<path d="M67.4 4.97994C67.62 5.13994 67.83 5.01994 68.03 4.93994C68.42 5.64994 67.8 5.54994 67.45 5.66994C67.23 5.89994 67.02 6.12994 66.8 6.36994C66.8 5.81994 66.85 5.29994 67.4 4.98994V4.97994Z" fill="#EFE3B7"/>
<path d="M33.83 64.77C34.2 64.77 34.56 64.78 34.93 64.79C34.9 64.93 34.87 65.08 34.85 65.22C34.26 65.18 34.06 65.76 33.64 65.99C33.61 65.57 33.58 65.14 33.84 64.77H33.83Z" fill="#DBBF73"/>
<path d="M9.68 65.93C9.48 65.81 9.27 65.69 9.07 65.57C8.86 65.38 8.84 65.23 9.16 65.15C9.5 64.94 9.83 64.72 10.17 64.51C10.31 65.08 9.64 65.38 9.68 65.93Z" fill="#D5B773"/>
<path d="M9.43999 63.8901C9.59999 63.7901 9.74999 63.7001 9.90999 63.6001C10.09 63.8801 10.35 64.1301 10.17 64.5101C9.88999 64.4801 9.59999 64.4601 9.32999 64.4001C9.20999 64.3701 9.11999 64.2401 9.00999 64.1601C9.14999 64.0701 9.29999 63.9801 9.43999 63.8901Z" fill="#D5B773"/>
<path d="M22.93 10.11C23.01 10.44 23.09 10.76 23.18 11.09C22.66 11.04 22.25 10.82 22.04 10.31C22.2 10.21 22.36 10.12 22.51 10.02C22.65 10.05 22.79 10.08 22.92 10.11H22.93Z" fill="#DDC58A"/>
<path d="M46.29 27.2501C46.13 26.9701 45.9 26.7101 46.08 26.3501C46.49 26.4301 46.9 26.5101 47.31 26.5901C47.32 26.6401 47.33 26.6901 47.33 26.7401C47.09 27.1101 46.73 27.2501 46.31 27.2801L46.29 27.2501Z" fill="#D9C186"/>
<path d="M23.27 6.66992C22.71 6.90992 22.52 7.72992 21.76 7.66992C22.01 6.95992 22.55 6.66992 23.27 6.66992Z" fill="#D3B879"/>
<path d="M42.32 31.6001C42.15 31.8501 42.26 32.0801 42.37 32.3101C41.62 32.0401 41.67 31.4501 41.8 30.8401C41.87 30.8301 41.94 30.8201 42 30.8101C42.29 30.8501 42.64 30.8601 42.75 31.1901C42.85 31.5001 42.63 31.6301 42.33 31.6001H42.32Z" fill="#E1CB8D"/>
<path d="M68.64 4.1599C68.28 4.3799 67.93 4.5999 67.57 4.8099C67.57 4.5799 67.57 4.3499 67.57 4.1199C67.76 3.8799 67.95 3.6399 68.15 3.3999C68.31 3.6499 68.47 3.8999 68.64 4.1599Z" fill="#D8BC74"/>
<path d="M27.04 20.4599C26.94 20.2799 26.89 20.0899 27.08 19.9399C27.31 19.7599 27.56 19.7699 27.67 20.0399C27.72 20.1799 27.65 20.4399 27.54 20.5499C27.39 20.6999 27.18 20.6199 27.04 20.4499V20.4599Z" fill="#D5BF8F"/>
<path d="M37.57 68.43C37.77 67.86 38.03 67.56 38.53 68.2C38.38 68.99 37.88 68.3 37.57 68.43Z" fill="#F9F4D7"/>
<path d="M13.91 4.29C13.81 4.09 13.82 3.9 14.04 3.8C14.24 3.71 14.45 3.77 14.52 3.99C14.55 4.11 14.5 4.3 14.41 4.39C14.24 4.56 14.05 4.47 13.92 4.3L13.91 4.29Z" fill="#F4ECCB"/>
<path d="M42.6 29.29C42.65 29.37 42.7 29.46 42.76 29.54C42.67 29.94 42.66 30.36 42.37 30.69C42.21 30.84 42.03 30.91 41.81 30.85H41.8C41.73 30.4 41.9 30 42.1 29.62C42.17 29.36 42.34 29.26 42.6 29.3V29.29Z" fill="#E2CB90"/>
<path d="M42.6 29.29C42.43 29.4 42.26 29.5 42.1 29.61C42.14 29.11 42.4 28.75 42.78 28.46C42.98 28.79 42.92 29.07 42.6 29.29Z" fill="#EFE3BF"/>
<path d="M66.52 1.95996C66.6 2.39996 65.86 2.62996 66.22 3.14996C65.49 2.68996 65.51 2.60996 66.52 1.95996Z" fill="#D8BC74"/>
<path d="M21.75 7.69995C21.74 8.11995 21.95 8.57995 21.49 8.88995C21.21 8.40995 21.3 8.00995 21.75 7.69995Z" fill="#D3B879"/>
<path d="M21.73 50.8099C21.58 51.2899 21.29 51.5999 20.74 51.7399C20.76 51.1399 21.29 51.1399 21.5 50.8599C21.57 50.8099 21.64 50.7899 21.73 50.8099Z" fill="#D2B679"/>
<path d="M6.18 6.17007C5.94 6.31007 5.69 6.62007 5.41 6.39007C5.13 6.16007 5.44 5.98007 5.6 5.82007C5.79 5.94007 5.99 6.05007 6.18 6.17007Z" fill="#CCB179"/>
<path d="M40.06 34.81C39.85 34.46 39.61 34.1 39.99 33.71C40.32 34.06 40.33 34.42 40.06 34.81Z" fill="#F1E7C2"/>
<path d="M68.65 8.17988C68.68 7.35988 69.15 7.69988 69.54 7.84988C69.29 8.07988 69.02 8.27988 68.65 8.17988Z" fill="#DCC27D"/>
<path d="M37.9 63.2301C37.69 63.3901 37.36 63.7301 37.29 63.6901C36.91 63.4401 37.45 63.1501 37.33 62.8501C37.61 62.8501 37.75 63.0401 37.9 63.2301Z" fill="#D3B87A"/>
<path d="M9.16001 65.16C9.13001 65.3 9.10001 65.44 9.07001 65.58C8.50001 66.18 7.81001 66.58 7.04001 66.86C6.54001 66.68 7.40001 65.62 6.35001 65.78C6.25001 64.9 7.20001 65.23 7.49001 64.8C7.94001 65.44 8.64001 64.87 9.16001 65.15V65.16Z" fill="#DBC281"/>
<path d="M7.75999 64.6101C7.11999 64.2101 6.38999 64.3401 5.70999 64.3401C4.98999 64.3401 5.42999 63.9101 5.36999 63.6701C6.02999 63.4101 6.65999 63.8701 7.34999 63.7101C7.75999 63.6201 8.15999 64.0501 7.75999 64.6101Z" fill="#DCC17E"/>
<path d="M4.78999 62.7601C5.07999 62.0801 5.57999 62.1401 5.90999 61.8301C6.09999 62.7901 5.47999 62.6701 4.78999 62.7601Z" fill="#AA8750"/>
<path d="M8.39 61.77C8.36 61.9 8.34 62.03 8.31 62.15C8.04 62.27 7.77 62.41 7.48 62.15C7.68 61.77 8.12 61.97 8.39 61.76V61.77Z" fill="#9E7B47"/>
<path d="M36.71 66.51C36.7 66.67 36.69 66.83 36.68 66.98C36.62 67.5 36.19 67.31 35.9 67.38C35.87 66.82 35.29 66.61 35.11 66.15C35.44 65.92 35.77 65.7 36.11 65.47C36.35 65.66 36.36 66.04 36.67 66.17C36.75 66.28 36.77 66.39 36.71 66.51Z" fill="#E1CA87"/>
<path d="M36.71 66.51C36.65 66.42 36.59 66.33 36.53 66.24C36.34 66.04 36.37 65.9 36.62 65.8C36.8 65.72 36.98 65.63 37.16 65.55C37.46 66.09 37.06 66.29 36.7 66.52L36.71 66.51Z" fill="#F4ECCC"/>
<path d="M36.63 65.79C36.6 65.94 36.57 66.08 36.54 66.23C35.62 66.42 36.15 65.78 36.11 65.47C36.29 65.58 36.46 65.68 36.64 65.79H36.63Z" fill="#BB954D"/>
<path d="M15.51 46.4999C15.03 46.3299 14.41 46.2499 15.01 45.5099C15.2 45.2699 15.63 44.8999 14.98 44.6299C14.75 44.4499 15.03 44.2199 14.93 44.0199C15.12 43.4599 15.51 43.0599 15.96 42.6899C16.05 42.7099 16.1 42.7599 16.1 42.8199C16.1 42.8799 16.1 42.9199 16.07 42.9299C16.23 43.1899 16.38 43.4599 16.54 43.7199C16.37 44.1899 16.81 44.3899 16.98 44.7099C17.28 45.2299 17.74 44.8899 18.13 44.9099C18.26 44.9099 18.39 44.9299 18.51 44.9799C18.76 45.2299 18.8 45.5599 18.85 45.8799C18.88 46.1499 18.89 46.4099 18.78 46.6699C18.69 46.7699 18.59 46.8499 18.47 46.9099C17.95 47.1599 17.3 46.9599 16.82 47.3699C16.27 47.5299 15.95 47.3199 16.01 46.7499C16.08 46.1299 15.59 46.7499 15.51 46.4899V46.4999Z" fill="#D0B168"/>
<path d="M20.81 43.1799C21.45 43.3899 20.83 44.0099 21.18 44.3199C21.19 44.5399 21.21 44.7699 21.22 44.9899C20.71 45.2099 20.67 45.6899 20.58 46.1499C20.06 46.5299 19.54 46.7099 19.03 46.1399C18.8 45.6099 19.82 45.3199 19.3 44.7299C19.66 44.4199 19.64 44.2499 19.18 43.6599C19.2 43.5899 19.21 43.5299 19.23 43.4599C19.82 43.7299 20.32 43.5099 20.8 43.1799H20.81Z" fill="#BE994F"/>
<path d="M17.2 44.75C17.09 43.66 18.13 44.4 18.44 43.98C18.68 43.98 18.84 44.11 18.99 44.28C19.12 44.46 19.17 44.67 19.16 44.89C18.99 45.23 18.73 45.2 18.45 45.04L18.37 45.01C18.01 45.04 17.66 45.25 17.28 45.07C17.18 44.98 17.16 44.86 17.2 44.74V44.75Z" fill="#D3B56C"/>
<path d="M16.07 42.93C16.02 42.86 15.98 42.78 15.96 42.69C16.44 42.38 16.93 42.07 17.41 41.76C17.53 41.93 17.65 42.09 17.77 42.26C17.88 42.28 17.93 42.33 17.92 42.39C17.91 42.44 17.89 42.48 17.85 42.5L16.06 42.92L16.07 42.93Z" fill="#F8F1CF"/>
<path d="M17.2 44.75C17.23 44.84 17.26 44.93 17.31 45.01C17.11 45.21 16.95 45.22 16.87 44.9C16.79 44.5 15.73 44.38 16.53 43.72L17.2 44.74V44.75Z" fill="#F3E8BF"/>
<path d="M18.55 43.51C18.63 43.29 18.69 43.05 18.81 42.85C18.94 42.63 19.12 42.22 19.41 42.53C19.63 42.77 19.28 43.03 19.06 43.21C18.98 43.46 18.8 43.54 18.55 43.5V43.51Z" fill="#DCC177"/>
<path d="M18.55 43.51C18.72 43.41 18.89 43.32 19.06 43.22C19.12 43.3 19.18 43.38 19.25 43.46H19.27C19.05 43.75 19.36 44.31 18.79 44.42C18.68 44.27 18.57 44.11 18.46 43.96C18.49 43.81 18.53 43.65 18.56 43.5L18.55 43.51Z" fill="#EBDAA0"/>
<path d="M17.85 42.5101C17.83 42.4301 17.8 42.3401 17.76 42.2601C18.09 42.2101 18.43 42.1601 18.81 42.1001C18.59 42.5701 18.26 42.6401 17.85 42.5101Z" fill="#D4B361"/>
<path d="M41.81 30.8499C41.98 30.7399 42.15 30.6399 42.32 30.5299C42.58 30.3599 42.71 30.0199 43.05 29.9599C43.25 29.9299 43.44 29.9799 43.6 30.0999C43.69 30.1999 43.74 30.3199 43.75 30.4499C43.57 30.9099 43.31 31.3599 43.54 31.8899C43.54 32.0199 43.54 32.1499 43.54 32.2799C43.2 31.9199 42.59 32.0699 42.3 31.6099C42.81 30.8999 41.7 31.2799 41.79 30.8599L41.81 30.8499Z" fill="#F0E6BF"/>
<path d="M43.55 31.89C43.05 31.35 43.34 30.87 43.64 30.38C43.96 29.92 44.42 30.2 44.82 30.17C44.97 30.16 45.1 30.1901 45.23 30.2701C45.45 30.4801 45.59 30.7201 45.47 31.0401C44.84 31.3401 43.6 30.27 43.55 31.88V31.89Z" fill="#E7D49B"/>
<path d="M47.09 29.6301C47.27 29.4801 47.45 29.3201 47.75 29.0701C47.97 29.8701 47.43 30.3601 47.23 30.9401C46.86 30.8201 46.52 31.7201 46.14 30.9701C46.14 30.9101 46.14 30.8401 46.14 30.7801C46.33 30.2901 46.69 29.9401 47.09 29.6301Z" fill="#F3E8BD"/>
<path d="M47.39 31.2C47.74 31.5 48.53 30.01 48.6 31.49C48.22 31.67 47.95 32.19 47.48 32C47.21 31.89 47.28 31.49 47.39 31.2Z" fill="#BE9C62"/>
<path d="M45.48 31.04C45.32 30.78 45.16 30.51 45 30.25C45.16 29.92 45.44 29.66 45.78 29.82C46.22 30.03 46.22 30.51 46.16 30.95V30.97C45.95 31.1 45.73 31.17 45.5 31.05L45.48 31.04Z" fill="#F1E5B2"/>
<path d="M46.15 30.9501C45.78 30.6901 45.96 29.5201 44.99 30.2501C44.89 30.2301 44.83 30.1801 44.82 30.1101C44.81 30.0401 44.82 29.9901 44.83 29.9801C45.46 29.9201 45.22 28.9301 45.93 28.9401C46.17 29.0801 46.39 28.9801 46.6 28.8701C46.72 28.8701 46.79 28.9101 46.8 28.9801C46.8 29.0501 46.8 29.1001 46.77 29.1201C46.88 29.2901 46.98 29.4601 47.09 29.6201C47.27 30.4101 46.4 30.4601 46.15 30.9401V30.9501Z" fill="#E7D49B"/>
<path d="M46.77 29.1201C46.72 29.0401 46.66 28.9501 46.61 28.8701C46.84 28.3801 47.23 28.0601 47.71 27.8301C47.63 28.4301 47.28 28.8301 46.77 29.1201Z" fill="#EFE3B7"/>
<path d="M14.93 44.02C15.47 44.18 14.84 44.44 14.98 44.63C14.72 44.86 14.49 45.18 14.06 44.96C14.22 44.52 14.23 43.95 14.93 44.02Z" fill="#C49F56"/>
<path d="M44.84 29.98C44.89 30.07 44.95 30.16 45 30.25C44.57 30.56 44.09 30.29 43.65 30.37C43.6 30.29 43.55 30.21 43.5 30.13C43.25 29.76 43.37 29.4 43.52 29.04C43.87 29.04 44.13 28.89 44.28 28.56C44.39 28.55 44.46 28.57 44.48 28.64C44.5 28.71 44.5 28.76 44.48 28.78C44.16 29.31 43.92 29.82 44.85 29.97L44.84 29.98Z" fill="#EEE1B6"/>
<path d="M44.47 28.79C44.4 28.72 44.33 28.65 44.27 28.57C44.31 28.54 44.35 28.51 44.39 28.48C44.71 28.3 44.75 27.69 45.29 27.87C45.39 27.9 45.52 28.1 45.5 28.19C45.39 28.78 44.92 28.77 44.47 28.79Z" fill="#CBAC71"/>
<path d="M43.1 30.07C42.89 30.31 42.83 30.79 42.33 30.53C42.26 30.1 42.4 29.77 42.77 29.54C42.82 29.62 42.88 29.71 42.93 29.79C43.02 29.82 43.08 29.87 43.1 29.94C43.12 30.01 43.12 30.05 43.1 30.07Z" fill="#D6BC7D"/>
<path d="M43.1 30.07C43.04 29.98 42.99 29.8901 42.93 29.7901C43.13 29.5401 43.33 29.3 43.53 29.05C43.53 29.41 43.52 29.77 43.51 30.14C43.38 30.12 43.24 30.09 43.11 30.07H43.1Z" fill="#E2CB90"/>
<path d="M69.17 6.68002C69.25 6.63002 69.34 6.57002 69.42 6.52002C69.6 6.55002 69.84 6.52002 69.94 6.62002C70.12 6.81002 69.87 6.91002 69.75 7.03002C69.47 7.05002 69.31 6.89002 69.17 6.68002Z" fill="#CFAE64"/>
<path d="M1.91 22.4199C1.69 22.1799 0.949997 22.5699 1.16 21.7999C1.7 21.9099 1.96 21.3999 2.46 21.1899C2.59 21.7999 2.27 22.1199 1.91 22.4199Z" fill="#D8C089"/>
<path d="M69.01 2.49988C69.3 2.33988 69.58 2.18988 70.15 1.87988C69.8 2.63988 69.9 3.31988 69.26 3.52988C68.74 3.69988 68.77 3.05988 68.52 2.80988C68.63 2.60988 68.84 2.58988 69.01 2.50988V2.49988Z" fill="#CEAC60"/>
<path d="M69.01 2.50002C69.03 2.90002 68.7 2.74002 68.52 2.80002C68.38 2.77002 68.24 2.75002 68.09 2.72002C68.09 2.16002 68.53 2.34002 68.83 2.27002C68.89 2.35002 68.95 2.42002 69.01 2.49002V2.50002Z" fill="#C29B48"/>
<path d="M69.17 6.68006C68.87 6.87006 68.57 7.06006 68.15 7.33006C68.38 6.73006 68.67 6.53006 69.17 6.68006Z" fill="#DCC27D"/>
<path d="M16.89 47.0799C17.31 46.4399 17.96 46.9399 18.47 46.7699C18.48 46.8299 18.49 46.8799 18.5 46.9399C18.5 47.1799 18.44 47.3999 18.29 47.5999C18.07 47.6099 17.84 47.6299 17.62 47.6399C17.42 47.7399 17.24 47.7199 17.05 47.6099C16.9 47.4599 16.82 47.2899 16.88 47.0799H16.89Z" fill="#E6D08D"/>
<path d="M17.17 47.5401C17.32 47.5801 17.47 47.6101 17.62 47.6501C17.53 48.2601 16.8 48.2301 16.56 48.6901C16.44 48.5401 16.33 48.4001 16.21 48.2501C16.36 47.7801 16.67 47.5301 17.17 47.5401Z" fill="#BF9A50"/>
<path d="M18.47 46.78C18.56 46.73 18.64 46.67 18.73 46.62C19.63 46.28 19.42 47.09 19.63 47.48V47.46C19.41 47.59 19.2 47.71 18.94 47.58C18.6 47.42 18.43 47.16 18.48 46.77L18.47 46.78Z" fill="#DCC587"/>
<path d="M18.47 46.77C18.62 47.04 18.78 47.31 18.93 47.58C18.72 47.59 18.5 47.6 18.29 47.61C18.09 47.28 18.13 46.99 18.47 46.77Z" fill="#D2B266"/>
<path d="M68.48 0.0300293C68.46 0.450029 68.06 0.790029 68.2 1.24003C67.74 1.37003 68.08 2.14003 67.5 2.12003C67.41 2.12003 67.34 1.72003 67.26 1.51003C67.52 0.900029 67.76 0.270029 68.48 0.0300293Z" fill="#D8BC74"/>
<path d="M24.75 9.65994C24.44 10.8899 23.97 10.5799 23.45 9.78994C23.9 9.95994 24.23 8.86994 24.75 9.65994Z" fill="#D4B56D"/>
<path d="M46.31 27.28C46.65 27.1 46.99 26.92 47.33 26.74C47.45 27.79 46.72 27.24 46.31 27.28Z" fill="#B08E55"/>
<path d="M17.17 47.54C16.85 47.78 16.53 48.01 16.21 48.25C16.33 47.45 15.21 47.44 15.23 46.71C15.32 46.64 15.42 46.5799 15.51 46.5099C16.13 46.1999 16.16 46.2 16.2 46.74C16.24 47.28 16.52 47.23 16.88 47.09C16.97 47.24 17.07 47.4 17.16 47.55L17.17 47.54Z" fill="#EBD99D"/>
<path d="M19.63 47.4699C19.13 47.3899 19.34 46.5699 18.73 46.6099C18.6 46.3999 18.52 46.1799 18.68 45.9499C18.82 45.9199 18.95 45.9499 19.08 46.0299C19.55 46.4799 20.1 45.9399 20.59 46.1499C20.82 46.3399 21.05 46.5199 21.28 46.6999C20.8 47.0999 19.91 46.6199 19.64 47.4699H19.63Z" fill="#BA954D"/>
<path d="M19.07 46.03C18.94 46 18.81 45.98 18.67 45.95C18.6 45.65 18.52 45.34 18.45 45.04C18.66 45.01 18.88 44.98 19.09 44.95C19.13 44.81 19.22 44.77 19.36 44.83C20.13 45.44 19.31 45.67 19.07 46.03Z" fill="#B08D4D"/>
<path d="M16.88 44.8999C17.03 44.9399 17.17 44.9699 17.32 45.0099C17.67 45.0099 18.02 45.0099 18.38 45.0099C17.86 45.2299 17.31 45.9899 16.89 44.8999H16.88Z" fill="#E9D8A1"/>
<path d="M19.37 44.83C19.28 44.86 19.19 44.9 19.1 44.95C18.99 44.78 18.88 44.6 18.78 44.43C18.96 44.12 18.78 43.62 19.26 43.47C19.4 43.92 20.67 44.27 19.37 44.83Z" fill="#DCC177"/>
</g>
<defs>
<clipPath id="clip0_338_259158">
<rect width="71.25" height="68.58" fill="white"/>
</clipPath>
</defs>
</svg>
