<svg width="1486" height="641" viewBox="0 0 1486 641" fill="none" xmlns="http://www.w3.org/2000/svg">
<path d="M459.505 613.004V602.056L479.744 598.406L480.076 555.939L477.421 555.607V552.953L495.006 550.63V48.318L660.563 0.541992L665.54 2.20088V6.18222L767.727 43.0096L785.311 38.6965L790.288 40.3554V50.9723L825.457 63.9116L842.377 59.9303L846.359 61.5892V99.4119L895.462 115.337L895.794 115.278L897.784 114.92L899.616 114.591L901.434 114.264L903.424 113.907L905.315 113.567L907.074 113.251L909.065 112.894L910.724 112.596L912.535 112.27L914.514 111.915L916.364 111.582L918.354 111.225L920.345 110.867L922.227 110.529L924.327 110.152L926.317 109.794L928.308 109.437L930.298 109.079L931.957 108.781L933.948 108.424L935.939 108.066L937.929 107.708L939.92 107.351L941.911 106.993L943.901 106.635L945.892 106.278L948.38 105.831L950.869 105.384V104.72L955.514 103.725L978.075 112.019V113.015V113.486L979.017 113.83L980.182 114.255L981.338 114.677L982.567 115.125L983.574 115.492L984.67 115.892L985.969 116.366L987.228 116.825L988.327 117.226L989.454 117.638L990.615 118.061L991.74 118.471L992.892 118.892L994.232 119.381L995.312 119.774L996.368 120.16L997.483 120.567L998.503 120.939L999.774 121.402L1000.75 121.759L1001.95 122.196L1003.03 122.592L1004.21 123.022L1005.4 123.455L1008.29 124.507L1011.25 124.295L1030.5 131.594V132.921L1055.05 141.879H1058.36L1061.02 142.875L1060.69 157.141V523.756L1033.48 528.673V555.635L986.037 566.367L968.121 564.39V570.419L964.803 571.17L957.67 570.419V563.238L941.911 567.883L901.434 560.583L842.046 571.961L825.125 566.367V551.618L811.056 553.758V577.702L805.494 579.051L794.625 576.476V556.257L771.053 559.842V583.786L765.491 585.135L754.621 582.56V562.34L711.325 568.925V604.113L703.362 605.642L695.068 603.383V571.397L670.184 575.182L666.535 574.812V622.294V634.238L649.614 640.542C603.829 635.234 598.189 632.579 596.895 628.266V618.426C596.893 618.388 596.893 618.351 596.895 618.313C596.939 617.567 597.84 616.798 599.184 615.962L575.296 612.673C574.035 612.568 568.228 613.533 560.698 614.944C549.202 617.098 533.69 620.29 524.202 622.294L459.505 613.004Z" fill="url(#paint0_linear_1284_6251)"/>
<path d="M459.505 613.004V602.056M459.505 613.004L524.202 622.294C533.69 620.29 549.202 617.098 560.698 614.944M459.505 613.004H0.148438M459.505 602.056L479.744 598.406L480.076 555.939M459.505 602.056L524.202 611.014C533.492 611.456 553.797 611.876 560.698 610.018M480.076 555.939L477.421 555.607V552.953M480.076 555.939L560.698 564.099M477.421 552.953L495.006 550.63M477.421 552.953L670.184 572.196M495.006 550.63V48.318L660.563 0.541992M495.006 550.63L660.563 570.312M660.563 0.541992L665.54 2.20088V6.18222L767.727 43.0096L785.311 38.6965M660.563 0.541992V55.6172M785.311 38.6965L790.288 40.3554V50.9723M785.311 38.6965V409.956M790.288 50.9723L825.457 63.9116L842.377 59.9303M790.288 50.9723V81.1641M842.377 59.9303L846.359 61.5892V99.4119M842.377 59.9303L842.046 400.335H838.396M895.794 120.314L846.359 103.393V99.4119M895.794 120.314V122.636M895.794 120.314V115.278M895.794 122.636L897.784 123.222M895.794 122.636L881.195 117.868L879.371 117.271M901.434 124.295V126.949M901.434 124.295L899.616 123.761M901.434 124.295V114.264M901.434 126.949V136.571M901.434 126.949L903.425 126.624M950.205 118.987L950.869 119.216M950.205 118.987L950.535 541.34M950.205 118.987L948.38 119.285M1060.69 157.141L1061.02 142.875L1058.36 141.879H1055.05M1060.69 157.141L1030.5 146.715M1060.69 157.141V523.756L1033.48 528.673M1030.5 146.715L1011.25 140.069M1030.5 146.715V145.197M1011.25 124.295L1030.5 131.594V132.921M1011.25 124.295V140.069M1011.25 124.295L1008.29 124.507M1006.61 138.465V124.627L1008.29 124.507M1006.61 138.465L1011.25 140.069M1006.61 138.465L1005.4 138.049M978.075 128.277V113.486M955.514 103.725L978.075 112.019V113.015V113.486M955.514 103.725V120.82M955.514 103.725L950.869 104.72V105.384M955.514 120.82L950.869 119.216M955.514 120.82L957.173 121.393M950.869 119.216V105.384M1030.5 139.155L1031.49 139.557L1032.49 138.893H1034.15L1035.14 139.889L1036.47 139.155H1038.46C1039.9 139.51 1042.9 140.486 1043.43 141.548C1043.97 142.609 1045.2 142.875 1045.76 142.875C1046.2 143.317 1047.08 144.268 1047.08 144.534C1047.08 144.71 1047.18 144.041 1047.42 143.427M1030.5 139.155V145.197M1030.5 139.155V132.921M1030.5 145.197L1031.82 146.715C1031.82 146.715 1031.72 144.599 1032.49 144.202C1033.15 145.197 1034.15 145.861 1034.15 145.861C1034.15 145.861 1034.16 143.656 1035.14 143.538C1034.81 144.202 1036.14 146.193 1036.14 146.193C1036.14 146.193 1035.8 144.202 1036.8 143.538C1037.84 143.425 1038.13 145.861 1038.13 145.861C1038.13 145.861 1038.97 145.678 1039.45 145.861C1040.78 146.193 1040.45 148.515 1040.45 148.515C1040.45 148.515 1041.11 148.183 1041.44 147.188C1042.77 146.856 1041.78 149.179 1041.78 149.179C1041.78 149.179 1043.43 148.183 1043.77 147.188C1044.02 147.799 1043.43 148.847 1043.43 148.847C1043.43 148.847 1044.43 148.515 1044.76 148.183C1046.09 148.515 1045.09 151.169 1045.09 151.169C1045.09 151.169 1047.08 149.51 1047.08 148.183C1049.08 147.851 1048.08 150.174 1048.08 150.174C1048.08 150.174 1049.41 149.51 1049.74 148.847C1050.8 148.987 1050.4 151.501 1050.4 151.501C1050.4 151.501 1051.73 151.169 1052.06 149.51C1053.06 149.51 1053.72 151.833 1053.72 151.833C1053.72 151.833 1054.05 150.837 1054.72 151.169C1055.38 151.169 1056.37 152.496 1056.37 152.496C1056.37 152.496 1056.71 151.169 1056.71 150.506C1057.04 149.842 1060.02 152.828 1060.02 152.828C1060.02 152.828 1059.36 149.842 1057.7 148.847C1058.36 148.183 1060.02 148.847 1060.02 148.847C1058.7 147.188 1057.37 145.529 1053.39 144.534C1055.05 144.202 1057.41 144.92 1057.37 144.865C1056.31 143.538 1054.05 143.428 1053.06 143.538C1052.5 143.76 1051.33 144.202 1051.07 144.202C1050.73 144.202 1048.62 143.508 1047.42 143.427M1047.42 143.427C1047.63 142.886 1047.95 142.388 1048.41 142.543H1054.05V141.879H1055.05M950.537 543.663L950.535 541.34M950.537 543.663L957.67 542.374M950.537 543.663L941.911 543.022M901.434 540.013V537.359M901.434 540.013L941.911 543.022M901.434 540.013V560.583M901.434 540.013L842.046 549.045M901.434 537.359L950.535 541.34M901.434 537.359V524.088M901.434 537.359L879.205 540.708M950.535 541.34L957.173 540.345V121.393M957.173 121.393L979.017 128.937M901.434 524.088L946.887 526.742L946.891 525.747M901.434 524.088V522.761M901.434 423.891V410.62M901.434 423.891L913.71 423.98M901.434 423.891V426.213M901.434 410.62V395.358H897.784M901.434 410.62L909.065 410.564M889.49 297.152V267.292M889.49 297.152L893.139 296.9M889.49 297.152V307.769M901.434 136.571L942.906 129.659M901.434 136.571V263.974M946.891 525.747L941.911 525.42M946.891 525.747L913.71 423.98M946.891 525.747L947.101 460.718M901.434 522.761L920.013 523.981M901.434 522.761V491.905M920.013 523.981L947.143 447.779M920.013 523.981L941.911 525.42M947.143 447.779L947.158 443.134M947.143 447.779L947.101 460.718M901.434 491.905L941.911 525.42M901.434 491.905V474.653M902.097 501.195L947.213 426.213M947.213 426.213L947.219 424.223L939.92 424.17M947.213 426.213L947.182 435.835M939.92 424.17L947.182 435.835M939.92 424.17L918.355 424.013M947.182 435.835L947.158 443.134M947.158 443.134L901.434 474.653M901.434 474.653V473.326M901.434 469.013L937.598 503.849M901.434 469.013V435.171M901.434 469.013V473.326M913.71 423.98L916.032 423.997M901.434 435.171L916.032 423.997M901.434 435.171V426.213M916.032 423.997L918.355 424.013M901.434 426.213L947.101 460.718M918.355 424.013L901.434 473.326M945.56 410.3L947.219 410.288V400.998M945.56 410.3L920.013 335.638M945.56 410.3L933.948 410.384M906.411 309.548L947.219 307.437V309.548M906.411 309.548L892.476 352.227M906.411 309.548L920.013 350.568M906.411 309.548L893.139 310.234M895.13 352.227L947.219 309.548M947.219 309.548V336.965M945.56 334.643L892.476 377.11M901.434 359.858L931.626 410.401M931.626 410.401L922.668 410.466M931.626 410.401L933.948 410.384M947.219 336.965L922.668 410.466M947.219 336.965V400.998M922.668 410.466L909.065 410.564M892.476 380.428L933.948 410.384M933.948 410.384L947.219 400.998M909.065 410.564L893.139 361.185M937.929 358.199L897.784 395.358M897.784 395.358H892.476M947.219 211.055L903.093 141.879M947.219 211.055V184.015M947.219 211.055V216.944M942.906 129.659L947.219 128.94V176.716M942.906 129.659L901.434 172.403M901.434 166.763L944.565 293.353M944.565 293.353L947.219 293.17V263.31M944.565 293.353L933.285 294.131M923.165 294.829L947.219 222.833M923.165 294.829L911.055 295.664M923.165 294.829L930.63 294.314M947.219 222.833V263.31M947.219 222.833V219.889M947.219 263.31L901.434 235.109M901.434 249.376L938.261 181.693M901.434 215.534L947.219 176.716M947.219 176.716V184.015M947.219 184.015L911.055 295.664M911.055 295.664L901.434 296.328M897.121 271.605L930.63 294.314M930.63 294.314L933.285 294.131M897.121 267.955L933.285 294.131M897.121 282.885L901.434 296.328M901.434 296.328L898.78 296.511M901.434 255.679L947.219 216.944M947.219 216.944V219.889M947.219 219.889L903.093 187.001M889.49 267.292L893.139 266.628M889.49 267.292L846.027 260.324M898.448 267.292L898.78 296.511M898.448 267.292L893.139 266.628M898.448 267.292H905.747M898.78 296.511L893.139 296.9M893.139 266.628V296.9M893.139 310.234L889.49 310.423V307.769M893.139 310.234V319.049M893.139 319.049L846.027 314.736M893.139 319.049L892.476 353.222M846.027 314.736V302.792M846.027 314.736V350.568M846.027 302.792L889.49 307.769M846.027 302.792V260.324M846.027 350.568L892.476 353.222M846.027 350.568V362.512M892.476 353.222V364.171M892.476 364.171L846.027 362.512M892.476 364.171V395.358M846.027 362.512V395.358H861.62M892.476 395.358H879.205M670.184 572.196V575.182M670.184 572.196L842.046 546.306M670.184 575.182L666.535 574.812M670.184 575.182L695.068 571.397M575.296 612.673C575.296 605.506 575.185 578.278 575.13 565.56M575.296 612.673C574.035 612.568 568.228 613.533 560.698 614.944M575.296 612.673L599.184 615.962M575.13 565.56L560.698 564.099M575.13 565.56L606.151 568.7M560.698 564.099V610.018M560.698 614.944V610.018M606.151 568.7C606.151 568.7 606.151 606.701 606.151 612.009M606.151 568.7L616.105 569.708M606.151 612.009L616.105 612.976M606.151 612.009C603.714 613.533 601.031 614.811 599.184 615.962M649.614 627.603C607.775 623.399 596.737 621.007 596.895 618.313M649.614 627.603V640.542M649.614 627.603L666.535 622.294M596.895 618.313V628.266C598.189 632.579 603.829 635.234 649.614 640.542M596.895 618.313C596.939 617.567 597.84 616.798 599.184 615.962M649.614 640.542L666.535 634.238V622.294M666.535 574.812V622.294M666.535 574.812L636.675 571.79M616.105 569.708V612.976M616.105 569.708L622.077 570.312M616.105 612.976L618.759 611.345V589.116L622.077 588.453V587.538M622.077 570.312L629.376 571.051M622.077 570.312V573.219M629.376 571.051V613.336L631.698 613.668M629.376 571.051L631.698 571.286M631.698 613.668V571.286M631.698 613.668L634.021 612.009L634.347 588.807M631.698 571.286L636.675 571.79M636.675 571.79V574.656M662.222 577.172L636.675 574.656M662.222 578.831L636.675 576.487M622.077 573.219L618.427 572.859V574.812L622.077 575.147M622.077 573.219L636.675 574.656M622.077 575.147V577.55M622.077 575.147L636.675 576.487M622.077 577.55L618.095 577.172V578.831L622.077 579.209M622.077 577.55L636.675 578.934M622.077 579.209V581.199M622.077 579.209L636.675 580.593M622.077 581.199L618.095 580.822V582.813L622.077 583.19M622.077 581.199L636.675 582.584M622.077 583.19V585.547M622.077 583.19L636.675 584.574M622.077 585.547L618.095 585.135V587.126L622.077 587.538M622.077 585.547L636.675 587.057M622.077 587.538L634.347 588.807M636.675 587.057L656.582 589.116V591.107L634.347 588.807M636.675 587.057V584.574M636.675 584.574L656.582 586.462V584.471L636.675 582.584M636.675 582.584V580.593M636.675 580.593L656.582 582.481V580.822L636.675 578.934M636.675 578.934V576.487M703.362 570.136V605.642M703.362 570.136L695.068 571.397M703.362 570.136L711.325 568.925M703.362 605.642L695.068 603.383V571.397M703.362 605.642L711.325 604.113V568.925M711.325 568.925L754.621 562.34M964.803 541.084V571.17M964.803 541.084L968.121 540.485M964.803 541.084L957.67 542.374M964.803 571.17L968.121 570.419V564.39M964.803 571.17L957.67 570.419V563.238M968.121 540.485L986.037 537.247M968.121 540.485V564.39M957.67 542.374V563.238M1033.48 528.673V555.635M1033.48 528.673L986.037 537.247M1033.48 555.635L986.037 566.367M1033.48 555.635H1485.85M986.037 566.367V537.247M986.037 566.367L968.121 564.39M941.911 543.022V567.883M941.911 567.883L901.434 560.583M941.911 567.883L957.67 563.238M901.434 560.583L842.046 571.961M660.563 570.312L666.535 571.051M660.563 570.312V545.985M666.535 571.051V546.317M666.535 571.051L781.662 553.616V549.967M666.535 546.317L660.563 545.985M666.535 546.317L744.835 536.45M660.563 545.985V237.1M666.535 236.104L660.563 237.1M666.535 236.104V54.29M666.535 236.104L744.835 248.518M660.563 237.1V55.6172M666.535 54.29L665.54 54.5112M666.535 54.29L771.045 87.4428M660.563 55.6172L665.54 54.5112M776.353 106.711V89.1267L771.045 87.4428M776.353 106.711L772.704 107.375M776.353 106.711L711.325 87.1361V89.1267M772.704 107.375L711.325 89.1267M772.704 107.375V239.459M711.325 89.1267V229.801L772.704 239.459M785.311 409.956H825.125M785.311 409.956L781.662 409.816M842.046 546.306V409.956H825.125M842.046 546.306L825.125 543.331M842.046 546.306L861.62 543.357M825.125 543.331V409.956M825.125 543.331L781.662 549.967M781.662 409.816L776.685 409.624V240.086L772.704 239.459M781.662 409.816V447.779M781.662 511.48L828.111 506.504V497.214H826.784V494.56L781.662 498.541M781.662 511.48V498.541M781.662 511.48V549.967M781.662 498.541V460.718M781.662 447.779L826.784 446.12V449.106H828.111V458.064L781.662 460.718M781.662 447.779V460.718M665.54 54.5112V44.6685M762.419 51.6358V43.0096H764.741V77.1827M762.419 51.6358L707.344 32.3972M762.419 51.6358L759.101 52.2994L714.975 37.1554M764.741 77.1827L771.045 79.1734V87.4428M764.741 77.1827L756.447 74.4642M665.54 44.6685L670.184 46.1909M665.54 44.6685V39.4747M756.447 74.4642V55.6172L722.226 63.2481M756.447 74.4642L722.226 63.2481M722.226 63.2481L714.975 60.8712M667.439 18.458L665.54 17.7945V39.4747M667.439 18.458V8.83644L670.184 8.50467M667.439 18.458L707.344 32.3972M670.184 8.50467V46.1909M670.184 8.50467L674.829 10.1636L674.599 23.1029M670.184 46.1909L674.166 47.4958M674.166 47.4958L703.03 56.9565M674.166 47.4958L674.599 23.1029M710.33 23.1029L714.975 24.7618V37.1554M710.33 23.1029L707.344 23.4347V32.3972M710.33 23.1029V35.5613V59.3488M714.975 60.8712L710.33 59.3488M714.975 60.8712V37.1554M710.33 59.3488L703.03 56.9565M707.344 32.3972L703.03 33.0562M703.03 33.0562V56.9565M703.03 33.0562L674.599 23.1029M561.693 55.6172L644.306 33.0562V36.7058M561.693 55.6172V76.851L567.001 75.4865M561.693 55.6172L567.001 56.9565M567.001 56.9565V75.4865M567.001 56.9565L584.388 52.4018M644.306 36.7058V55.6172L636.992 57.4971M644.306 36.7058L604.482 47.138M567.001 75.4865L584.388 71.0176M830.765 110.692V115.669L828.111 116.333V119.65L823.466 118.224M830.765 110.692L827.447 111.024C815.282 106.932 790.819 98.7483 790.288 98.7483M830.765 110.692L828.111 109.8M790.288 108.038V98.7483M790.288 108.038V146.193M790.288 108.038L823.466 118.224M790.288 98.7483V97.0894M790.288 97.0894L828.111 109.8M790.288 97.0894V89.1267M828.111 109.8V101.786M790.288 81.1641L828.111 93.7716V101.786M790.288 81.1641V89.1267M828.111 101.786L790.288 89.1267M950.869 105.384L948.38 105.831M846.359 99.4119L895.462 115.337L895.794 115.278M895.794 115.278L897.784 114.92M897.784 114.92V123.222M897.784 114.92L899.616 114.591M897.784 123.222L899.616 123.761M899.616 114.591V123.761M899.616 114.591L901.434 114.264M901.434 114.264L903.425 113.907M903.425 113.907V126.624M903.425 113.907L905.315 113.567M903.425 126.624L905.315 126.316M905.315 126.316V113.567M905.315 126.316L907.074 126.029M905.315 113.567L907.074 113.251M907.074 113.251V126.029M907.074 113.251L909.065 112.894M907.074 126.029L909.065 125.704M909.065 112.894V125.704M909.065 112.894L910.724 112.596M909.065 125.704L910.724 125.433M910.724 112.596V125.433M910.724 112.596L912.535 112.27M910.724 125.433L912.535 125.137M912.535 112.27V125.137M912.535 112.27L914.514 111.915M912.535 125.137L914.514 124.814M914.514 111.915V124.814M914.514 111.915L916.364 111.582M914.514 124.814L916.364 124.512M916.364 111.582V124.512M916.364 111.582L918.355 111.225M916.364 124.512L918.355 124.187M918.355 111.225V124.187M918.355 111.225L920.345 110.867M918.355 124.187L922.227 123.555M920.345 110.867V123.632M920.345 110.867L922.227 110.529M922.227 110.529V123.555M922.227 110.529L924.327 110.152M922.227 123.555L924.327 123.212M924.327 110.152V123.212M924.327 110.152L926.317 109.794M924.327 123.212L926.317 122.887M926.317 109.794V122.887M926.317 109.794L928.308 109.437M926.317 122.887L928.308 122.562M928.308 109.437V122.562M928.308 109.437L930.298 109.079M928.308 122.562L930.298 122.237M930.298 109.079V122.237M930.298 109.079L931.957 108.781M930.298 122.237L931.957 121.966M931.957 108.781V121.966M931.957 108.781L933.948 108.424M931.957 121.966L933.948 121.641M933.948 108.424V121.641M933.948 108.424L935.939 108.066M933.948 121.641L935.939 121.316M935.939 108.066V121.316M935.939 108.066L937.929 107.708M935.939 121.316L937.929 120.991M937.929 107.708V120.991M937.929 107.708L939.92 107.351M937.929 120.991L939.92 120.666M939.92 107.351V120.666M939.92 107.351L941.911 106.993M939.92 120.666L941.911 120.341M941.911 106.993V120.341M941.911 106.993L943.901 106.635M941.911 120.341L943.901 120.016M943.901 106.635V120.016M943.901 106.635L945.892 106.278M943.901 120.016L945.892 119.691M945.892 106.278V119.691M945.892 106.278L948.38 105.831M945.892 119.691L948.38 119.285M948.38 105.831V119.285M1030.5 132.921L1055.05 141.879M790.288 346.255L838.396 349.241V351.563H839.391V361.185L790.288 358.862M790.288 346.255V358.862M790.288 346.255V307.769M790.288 358.862V397.68M790.288 307.769L839.391 312.082V302.792H838.396V300.469L790.288 294.829M790.288 307.769V294.829M790.288 294.829V256.343M790.288 256.343L839.391 263.642V254.02L823.466 251.546M790.288 256.343V246.39M790.288 246.39V208.235M790.288 246.39L823.466 251.546M790.288 208.235V196.291M790.288 208.235L823.466 215.22M790.288 196.291V158.137M790.288 196.291L823.466 203.228M790.288 158.137V146.193M790.288 158.137L823.466 166.577M790.288 146.193L823.466 154.939M823.466 251.546V215.22M823.466 118.224V154.939M823.466 154.939L826.784 155.814V158.137H828.111V167.758L823.466 166.577M823.466 166.577V203.228M823.466 203.228L826.784 203.922V206.908H828.111V216.198L823.466 215.22M838.396 400.335H790.288V397.68M838.396 400.335V397.68H790.288M744.835 536.45L748.152 536.032V249.044L744.835 248.518M744.835 536.45V248.518M640.809 79.3318L644.306 78.5098L643.642 567.551L640.809 567.209M640.809 79.3318V567.209M640.809 79.3318L637.67 80.0696M640.809 567.209L637.67 566.831M637.67 566.831L561.029 557.597V98.0848L563.02 97.6168M637.67 566.831V80.0696M637.67 80.0696L634.684 80.7715M634.684 80.7715V566.472M634.684 80.7715L631.366 81.5514M631.366 81.5514V566.072M631.366 81.5514L628.38 82.2533M628.38 82.2533V565.712M628.38 82.2533L625.394 82.9551M625.394 82.9551V565.352M625.394 82.9551L622.077 83.735M622.077 83.735V564.953M622.077 83.735L619.091 84.4369M619.091 84.4369V564.593M619.091 84.4369L616.076 85.1454M616.076 85.1454V564.233M616.076 85.1454L613.119 85.8407M613.119 85.8407V563.873M613.119 85.8407L609.801 86.6206M609.801 86.6206V563.473M609.801 86.6206L606.815 87.3225M606.815 87.3225V563.114M606.815 87.3225L603.829 88.0243M603.829 88.0243V562.754M603.829 88.0243L600.843 88.7262M600.843 88.7262V562.394M600.843 88.7262L597.727 89.4585M597.727 89.4585V562.019M597.727 89.4585L594.904 90.1221M594.904 90.1221V561.679M594.904 90.1221L592.217 90.7539M592.217 90.7539V561.355M592.217 90.7539L589.231 91.4558M589.231 91.4558V560.995M589.231 91.4558L586.436 92.1128M586.436 92.1128V560.658M586.436 92.1128L583.259 92.8596M583.259 92.8596V560.252M583.259 92.8596L580.273 93.5615M580.273 93.5615V559.92M580.273 93.5615L577.287 94.2634M577.287 94.2634V559.556M577.287 94.2634L574.632 94.8873M574.632 94.8873V559.236M574.632 94.8873L571.646 95.5892M571.646 95.5892V558.877M571.646 95.5892L568.66 96.291M568.66 96.291V558.517M568.66 96.291L566.006 96.9149M566.006 96.9149V558.197M566.006 96.9149L563.02 97.6168M563.02 97.6168V557.837M901.434 263.974L905.747 264.637V267.292M901.434 263.974L879.371 260.407M905.747 267.292L846.027 257.67M846.027 257.67V255.016M846.027 257.67V260.324M846.027 255.016V106.379L861.955 111.582M846.027 255.016L861.955 257.591M861.955 111.582V257.591M861.955 111.582L864.606 112.449M861.955 257.591L864.606 258.02M864.606 112.449V258.02M864.606 112.449L877.546 116.675M864.606 258.02L877.546 260.112M877.546 260.112V116.675M877.546 260.112L879.371 260.407M877.546 116.675L879.371 117.271M879.371 117.271V260.407M861.62 395.358V543.357M861.62 395.358H863.611M861.62 543.357L863.611 543.057M863.611 395.358V543.057M863.611 395.358H877.546M863.611 543.057L877.546 540.958M877.546 540.958V395.358M877.546 540.958L879.205 540.708M877.546 395.358H879.205M879.205 395.358V540.708M765.491 560.687V585.135M765.491 560.687L771.053 559.842M765.491 560.687L754.621 562.34M765.491 585.135L771.053 583.786V559.842M765.491 585.135L754.621 582.56V562.34M771.053 559.842L825.125 551.618M805.494 554.604V579.051M805.494 579.051L794.625 576.476V556.257M805.494 579.051L811.056 577.702V553.758M842.046 571.961V549.045M842.046 571.961L825.125 566.367V551.618M842.046 549.045L825.125 551.618M978.075 113.486L979.017 113.83M1008.29 124.507L1005.4 123.455M979.017 113.83V128.937M979.017 113.83L985.969 116.366M979.017 128.937L985.969 131.337M980.182 114.255V129.339M981.338 114.677V129.738M982.567 115.125V130.163M983.574 115.492V130.51M984.67 115.892V130.999M985.969 116.366V131.337M985.969 116.366L987.228 116.825M985.969 131.337L987.228 131.772M987.228 116.825V131.772M987.228 116.825L988.327 117.226M987.228 131.772L988.327 132.152M988.327 117.226V132.152M988.327 117.226L989.454 117.638M988.327 132.152L989.454 132.541M989.454 117.638V132.541M989.454 117.638L990.615 118.061M989.454 132.541L990.615 132.942M990.615 118.061V132.942M990.615 118.061L991.74 118.471M990.615 132.942L991.74 133.331M991.74 118.471V133.331M991.74 118.471L992.892 118.892M991.74 133.331L992.892 133.728M992.892 118.892V133.728M992.892 118.892L994.232 119.381M992.892 133.728L994.232 134.191M994.232 119.381V134.191M994.232 119.381L995.312 119.774M994.232 134.191L995.312 134.564M995.312 119.774V134.564M995.312 119.774L996.368 120.16M995.312 134.564L996.368 134.929M996.368 120.16V134.929M996.368 120.16L997.483 120.567M996.368 134.929L997.483 135.314M997.483 120.567V135.314M997.483 120.567L998.503 120.939M997.483 135.314L998.503 135.666M998.503 120.939V135.666M998.503 120.939L999.774 121.402M998.503 135.666L999.774 136.105M999.774 121.402V136.105M999.774 121.402L1000.75 121.759M999.774 136.105L1000.75 136.443M1000.75 121.759V136.443M1000.75 121.759L1001.95 122.196M1000.75 136.443L1001.95 136.857M1001.95 122.196V136.857M1001.95 122.196L1003.03 122.592M1001.95 136.857L1003.03 137.231M1003.03 122.592V137.231M1003.03 122.592L1004.21 123.022M1003.03 137.231L1004.21 137.639M1004.21 123.022V137.639M1004.21 123.022L1005.4 123.455M1004.21 137.639L1005.4 138.049M1005.4 123.455V138.049M584.388 52.4018V71.0176M584.388 52.4018L587.368 51.6212M584.388 71.0176L587.368 70.2517M587.368 51.6212V70.2517M587.368 51.6212L595.354 49.5291M587.368 70.2517L595.354 68.199M595.354 49.5291V68.199M595.354 49.5291L601.616 47.8887M595.354 68.199L633.658 58.354M604.482 47.138L636.992 57.4971M604.482 47.138L601.616 47.8887M636.992 57.4971L633.658 58.354M601.616 47.8887L633.658 58.354M665.54 39.4747L771.045 74.4642" stroke="#475569" stroke-width="0.773803"/>
<defs>
<linearGradient id="paint0_linear_1284_6251" x1="743" y1="0.541992" x2="743" y2="640.542" gradientUnits="userSpaceOnUse">
<stop stop-color="#F8FAFC"/>
<stop offset="1" stop-color="white"/>
</linearGradient>
</defs>
</svg>
