<svg width="202" height="223" viewBox="0 0 202 223" fill="none" xmlns="http://www.w3.org/2000/svg">
<rect x="1" y="21.5" width="200" height="200" rx="16" fill="white"/>
<rect x="1" y="21.5" width="200" height="200" rx="16" stroke="#0088CD" stroke-width="2"/>
<g clip-path="url(#clip0_649_5668)">
<path d="M75.8016 38.8008H70.1016V44.5008H75.8016V38.8008Z" fill="black"/>
<path d="M115.7 38.8008H110V44.5008H115.7V38.8008Z" fill="black"/>
<path d="M127.098 38.8008H121.398V44.5008H127.098V38.8008Z" fill="black"/>
<path d="M132.802 38.8008H127.102V44.5008H132.802V38.8008Z" fill="black"/>
<path d="M138.501 38.8008H132.801V44.5008H138.501V38.8008Z" fill="black"/>
<path d="M70.0984 44.5H64.3984V50.2H70.0984V44.5Z" fill="black"/>
<path d="M75.8016 44.5H70.1016V50.2H75.8016V44.5Z" fill="black"/>
<path d="M87.2 44.5H81.5V50.2H87.2V44.5Z" fill="black"/>
<path d="M92.8992 44.5H87.1992V50.2H92.8992V44.5Z" fill="black"/>
<path d="M98.5984 44.5H92.8984V50.2H98.5984V44.5Z" fill="black"/>
<path d="M104.302 44.5H98.6016V50.2H104.302V44.5Z" fill="black"/>
<path d="M110.001 44.5H104.301V50.2H110.001V44.5Z" fill="black"/>
<path d="M121.399 44.5H115.699V50.2H121.399V44.5Z" fill="black"/>
<path d="M132.802 44.5H127.102V50.2H132.802V44.5Z" fill="black"/>
<path d="M75.8016 50.1992H70.1016V55.8992H75.8016V50.1992Z" fill="black"/>
<path d="M81.5008 50.1992H75.8008V55.8992H81.5008V50.1992Z" fill="black"/>
<path d="M87.2 50.1992H81.5V55.8992H87.2V50.1992Z" fill="black"/>
<path d="M104.302 50.1992H98.6016V55.8992H104.302V50.1992Z" fill="black"/>
<path d="M115.7 50.1992H110V55.8992H115.7V50.1992Z" fill="black"/>
<path d="M127.098 50.1992H121.398V55.8992H127.098V50.1992Z" fill="black"/>
<path d="M132.802 50.1992H127.102V55.8992H132.802V50.1992Z" fill="black"/>
<path d="M70.0984 55.9004H64.3984V61.6004H70.0984V55.9004Z" fill="black"/>
<path d="M75.8016 55.9004H70.1016V61.6004H75.8016V55.9004Z" fill="black"/>
<path d="M87.2 55.9004H81.5V61.6004H87.2V55.9004Z" fill="black"/>
<path d="M104.302 55.9004H98.6016V61.6004H104.302V55.9004Z" fill="black"/>
<path d="M110.001 55.9004H104.301V61.6004H110.001V55.9004Z" fill="black"/>
<path d="M115.7 55.9004H110V61.6004H115.7V55.9004Z" fill="black"/>
<path d="M121.399 55.9004H115.699V61.6004H121.399V55.9004Z" fill="black"/>
<path d="M138.501 55.9004H132.801V61.6004H138.501V55.9004Z" fill="black"/>
<path d="M81.5008 61.5996H75.8008V67.2996H81.5008V61.5996Z" fill="black"/>
<path d="M92.8992 61.5996H87.1992V67.2996H92.8992V61.5996Z" fill="black"/>
<path d="M104.302 61.5996H98.6016V67.2996H104.302V61.5996Z" fill="black"/>
<path d="M110.001 61.5996H104.301V67.2996H110.001V61.5996Z" fill="black"/>
<path d="M115.7 61.5996H110V67.2996H115.7V61.5996Z" fill="black"/>
<path d="M132.802 61.5996H127.102V67.2996H132.802V61.5996Z" fill="black"/>
<path d="M138.501 61.5996H132.801V67.2996H138.501V61.5996Z" fill="black"/>
<path d="M70.0984 67.3008H64.3984V73.0008H70.0984V67.3008Z" fill="black"/>
<path d="M81.5008 67.3008H75.8008V73.0008H81.5008V67.3008Z" fill="black"/>
<path d="M98.5984 67.3008H92.8984V73.0008H98.5984V67.3008Z" fill="black"/>
<path d="M110.001 67.3008H104.301V73.0008H110.001V67.3008Z" fill="black"/>
<path d="M121.399 67.3008H115.699V73.0008H121.399V67.3008Z" fill="black"/>
<path d="M132.802 67.3008H127.102V73.0008H132.802V67.3008Z" fill="black"/>
<path d="M70.0984 73H64.3984V78.7H70.0984V73Z" fill="black"/>
<path d="M81.5008 73H75.8008V78.7H81.5008V73Z" fill="black"/>
<path d="M92.8992 73H87.1992V78.7H92.8992V73Z" fill="black"/>
<path d="M104.302 73H98.6016V78.7H104.302V73Z" fill="black"/>
<path d="M115.7 73H110V78.7H115.7V73Z" fill="black"/>
<path d="M127.098 73H121.398V78.7H127.098V73Z" fill="black"/>
<path d="M138.501 73H132.801V78.7H138.501V73Z" fill="black"/>
<path d="M92.8992 78.6992H87.1992V84.3992H92.8992V78.6992Z" fill="black"/>
<path d="M98.5984 78.6992H92.8984V84.3992H98.5984V78.6992Z" fill="black"/>
<path d="M104.302 78.6992H98.6016V84.3992H104.302V78.6992Z" fill="black"/>
<path d="M115.7 78.6992H110V84.3992H115.7V78.6992Z" fill="black"/>
<path d="M121.399 78.6992H115.699V84.3992H121.399V78.6992Z" fill="black"/>
<path d="M127.098 78.6992H121.398V84.3992H127.098V78.6992Z" fill="black"/>
<path d="M132.802 78.6992H127.102V84.3992H132.802V78.6992Z" fill="black"/>
<path d="M138.501 78.6992H132.801V84.3992H138.501V78.6992Z" fill="black"/>
<path d="M24.5008 84.4004H18.8008V90.1004H24.5008V84.4004Z" fill="black"/>
<path d="M30.2 84.4004H24.5V90.1004H30.2V84.4004Z" fill="black"/>
<path d="M35.8992 84.4004H30.1992V90.1004H35.8992V84.4004Z" fill="black"/>
<path d="M41.5984 84.4004H35.8984V90.1004H41.5984V84.4004Z" fill="black"/>
<path d="M47.3016 84.4004H41.6016V90.1004H47.3016V84.4004Z" fill="black"/>
<path d="M58.7 84.4004H53V90.1004H58.7V84.4004Z" fill="black"/>
<path d="M64.3992 84.4004H58.6992V90.1004H64.3992V84.4004Z" fill="black"/>
<path d="M70.0984 84.4004H64.3984V90.1004H70.0984V84.4004Z" fill="black"/>
<path d="M75.8016 84.4004H70.1016V90.1004H75.8016V84.4004Z" fill="black"/>
<path d="M81.5008 84.4004H75.8008V90.1004H81.5008V84.4004Z" fill="black"/>
<path d="M92.8992 84.4004H87.1992V90.1004H92.8992V84.4004Z" fill="black"/>
<path d="M110.001 84.4004H104.301V90.1004H110.001V84.4004Z" fill="black"/>
<path d="M138.501 84.4004H132.801V90.1004H138.501V84.4004Z" fill="black"/>
<path d="M144.2 84.4004H138.5V90.1004H144.2V84.4004Z" fill="black"/>
<path d="M155.598 84.4004H149.898V90.1004H155.598V84.4004Z" fill="black"/>
<path d="M167.001 84.4004H161.301V90.1004H167.001V84.4004Z" fill="black"/>
<path d="M178.399 84.4004H172.699V90.1004H178.399V84.4004Z" fill="black"/>
<path d="M35.8992 90.0996H30.1992V95.7996H35.8992V90.0996Z" fill="black"/>
<path d="M41.5984 90.0996H35.8984V95.7996H41.5984V90.0996Z" fill="black"/>
<path d="M47.3016 90.0996H41.6016V95.7996H47.3016V90.0996Z" fill="black"/>
<path d="M75.8016 90.0996H70.1016V95.7996H75.8016V90.0996Z" fill="black"/>
<path d="M115.7 90.0996H110V95.7996H115.7V90.0996Z" fill="black"/>
<path d="M127.098 90.0996H121.398V95.7996H127.098V90.0996Z" fill="black"/>
<path d="M132.802 90.0996H127.102V95.7996H132.802V90.0996Z" fill="black"/>
<path d="M138.501 90.0996H132.801V95.7996H138.501V90.0996Z" fill="black"/>
<path d="M144.2 90.0996H138.5V95.7996H144.2V90.0996Z" fill="black"/>
<path d="M161.302 90.0996H155.602V95.7996H161.302V90.0996Z" fill="black"/>
<path d="M167.001 90.0996H161.301V95.7996H167.001V90.0996Z" fill="black"/>
<path d="M178.399 90.0996H172.699V95.7996H178.399V90.0996Z" fill="black"/>
<path d="M24.5008 95.8008H18.8008V101.501H24.5008V95.8008Z" fill="black"/>
<path d="M30.2 95.8008H24.5V101.501H30.2V95.8008Z" fill="black"/>
<path d="M53.0008 95.8008H47.3008V101.501H53.0008V95.8008Z" fill="black"/>
<path d="M58.7 95.8008H53V101.501H58.7V95.8008Z" fill="black"/>
<path d="M64.3992 95.8008H58.6992V101.501H64.3992V95.8008Z" fill="black"/>
<path d="M70.0984 95.8008H64.3984V101.501H70.0984V95.8008Z" fill="black"/>
<path d="M75.8016 95.8008H70.1016V101.501H75.8016V95.8008Z" fill="black"/>
<path d="M87.2 95.8008H81.5V101.501H87.2V95.8008Z" fill="black"/>
<path d="M92.8992 95.8008H87.1992V101.501H92.8992V95.8008Z" fill="black"/>
<path d="M104.302 95.8008H98.6016V101.501H104.302V95.8008Z" fill="black"/>
<path d="M110.001 95.8008H104.301V101.501H110.001V95.8008Z" fill="black"/>
<path d="M115.7 95.8008H110V101.501H115.7V95.8008Z" fill="black"/>
<path d="M121.399 95.8008H115.699V101.501H121.399V95.8008Z" fill="black"/>
<path d="M127.098 95.8008H121.398V101.501H127.098V95.8008Z" fill="black"/>
<path d="M132.802 95.8008H127.102V101.501H132.802V95.8008Z" fill="black"/>
<path d="M155.598 95.8008H149.898V101.501H155.598V95.8008Z" fill="black"/>
<path d="M167.001 95.8008H161.301V101.501H167.001V95.8008Z" fill="black"/>
<path d="M172.7 95.8008H167V101.501H172.7V95.8008Z" fill="black"/>
<path d="M30.2 101.5H24.5V107.2H30.2V101.5Z" fill="black"/>
<path d="M35.8992 101.5H30.1992V107.2H35.8992V101.5Z" fill="black"/>
<path d="M70.0984 101.5H64.3984V107.2H70.0984V101.5Z" fill="black"/>
<path d="M75.8016 101.5H70.1016V107.2H75.8016V101.5Z" fill="black"/>
<path d="M81.5008 101.5H75.8008V107.2H81.5008V101.5Z" fill="black"/>
<path d="M87.2 101.5H81.5V107.2H87.2V101.5Z" fill="black"/>
<path d="M98.5984 101.5H92.8984V107.2H98.5984V101.5Z" fill="black"/>
<path d="M104.302 101.5H98.6016V107.2H104.302V101.5Z" fill="black"/>
<path d="M110.001 101.5H104.301V107.2H110.001V101.5Z" fill="black"/>
<path d="M115.7 101.5H110V107.2H115.7V101.5Z" fill="black"/>
<path d="M121.399 101.5H115.699V107.2H121.399V101.5Z" fill="black"/>
<path d="M127.098 101.5H121.398V107.2H127.098V101.5Z" fill="black"/>
<path d="M132.802 101.5H127.102V107.2H132.802V101.5Z" fill="black"/>
<path d="M138.501 101.5H132.801V107.2H138.501V101.5Z" fill="black"/>
<path d="M149.899 101.5H144.199V107.2H149.899V101.5Z" fill="black"/>
<path d="M155.598 101.5H149.898V107.2H155.598V101.5Z" fill="black"/>
<path d="M161.302 101.5H155.602V107.2H161.302V101.5Z" fill="black"/>
<path d="M167.001 101.5H161.301V107.2H167.001V101.5Z" fill="black"/>
<path d="M184.098 101.5H178.398V107.2H184.098V101.5Z" fill="black"/>
<path d="M24.5008 107.199H18.8008V112.899H24.5008V107.199Z" fill="black"/>
<path d="M30.2 107.199H24.5V112.899H30.2V107.199Z" fill="black"/>
<path d="M41.5984 107.199H35.8984V112.899H41.5984V107.199Z" fill="black"/>
<path d="M53.0008 107.199H47.3008V112.899H53.0008V107.199Z" fill="black"/>
<path d="M58.7 107.199H53V112.899H58.7V107.199Z" fill="black"/>
<path d="M64.3992 107.199H58.6992V112.899H64.3992V107.199Z" fill="black"/>
<path d="M70.0984 107.199H64.3984V112.899H70.0984V107.199Z" fill="black"/>
<path d="M75.8016 107.199H70.1016V112.899H75.8016V107.199Z" fill="black"/>
<path d="M87.2 107.199H81.5V112.899H87.2V107.199Z" fill="black"/>
<path d="M110.001 107.199H104.301V112.899H110.001V107.199Z" fill="black"/>
<path d="M121.399 107.199H115.699V112.899H121.399V107.199Z" fill="black"/>
<path d="M138.501 107.199H132.801V112.899H138.501V107.199Z" fill="black"/>
<path d="M144.2 107.199H138.5V112.899H144.2V107.199Z" fill="black"/>
<path d="M155.598 107.199H149.898V112.899H155.598V107.199Z" fill="black"/>
<path d="M161.302 107.199H155.602V112.899H161.302V107.199Z" fill="black"/>
<path d="M30.2 112.9H24.5V118.6H30.2V112.9Z" fill="black"/>
<path d="M35.8992 112.9H30.1992V118.6H35.8992V112.9Z" fill="black"/>
<path d="M53.0008 112.9H47.3008V118.6H53.0008V112.9Z" fill="black"/>
<path d="M75.8016 112.9H70.1016V118.6H75.8016V112.9Z" fill="black"/>
<path d="M81.5008 112.9H75.8008V118.6H81.5008V112.9Z" fill="black"/>
<path d="M92.8992 112.9H87.1992V118.6H92.8992V112.9Z" fill="black"/>
<path d="M104.302 112.9H98.6016V118.6H104.302V112.9Z" fill="black"/>
<path d="M110.001 112.9H104.301V118.6H110.001V112.9Z" fill="black"/>
<path d="M132.802 112.9H127.102V118.6H132.802V112.9Z" fill="black"/>
<path d="M138.501 112.9H132.801V118.6H138.501V112.9Z" fill="black"/>
<path d="M149.899 112.9H144.199V118.6H149.899V112.9Z" fill="black"/>
<path d="M161.302 112.9H155.602V118.6H161.302V112.9Z" fill="black"/>
<path d="M167.001 112.9H161.301V118.6H167.001V112.9Z" fill="black"/>
<path d="M178.399 112.9H172.699V118.6H178.399V112.9Z" fill="black"/>
<path d="M47.3016 118.6H41.6016V124.3H47.3016V118.6Z" fill="black"/>
<path d="M58.7 118.6H53V124.3H58.7V118.6Z" fill="black"/>
<path d="M64.3992 118.6H58.6992V124.3H64.3992V118.6Z" fill="black"/>
<path d="M70.0984 118.6H64.3984V124.3H70.0984V118.6Z" fill="black"/>
<path d="M75.8016 118.6H70.1016V124.3H75.8016V118.6Z" fill="black"/>
<path d="M98.5984 118.6H92.8984V124.3H98.5984V118.6Z" fill="black"/>
<path d="M110.001 118.6H104.301V124.3H110.001V118.6Z" fill="black"/>
<path d="M115.7 118.6H110V124.3H115.7V118.6Z" fill="black"/>
<path d="M144.2 118.6H138.5V124.3H144.2V118.6Z" fill="black"/>
<path d="M167.001 118.6H161.301V124.3H167.001V118.6Z" fill="black"/>
<path d="M172.7 118.6H167V124.3H172.7V118.6Z" fill="black"/>
<path d="M178.399 118.6H172.699V124.3H178.399V118.6Z" fill="black"/>
<path d="M184.098 118.6H178.398V124.3H184.098V118.6Z" fill="black"/>
<path d="M30.2 124.301H24.5V130.001H30.2V124.301Z" fill="black"/>
<path d="M35.8992 124.301H30.1992V130.001H35.8992V124.301Z" fill="black"/>
<path d="M64.3992 124.301H58.6992V130.001H64.3992V124.301Z" fill="black"/>
<path d="M70.0984 124.301H64.3984V130.001H70.0984V124.301Z" fill="black"/>
<path d="M81.5008 124.301H75.8008V130.001H81.5008V124.301Z" fill="black"/>
<path d="M92.8992 124.301H87.1992V130.001H92.8992V124.301Z" fill="black"/>
<path d="M104.302 124.301H98.6016V130.001H104.302V124.301Z" fill="black"/>
<path d="M115.7 124.301H110V130.001H115.7V124.301Z" fill="black"/>
<path d="M121.399 124.301H115.699V130.001H121.399V124.301Z" fill="black"/>
<path d="M127.098 124.301H121.398V130.001H127.098V124.301Z" fill="black"/>
<path d="M132.802 124.301H127.102V130.001H132.802V124.301Z" fill="black"/>
<path d="M138.501 124.301H132.801V130.001H138.501V124.301Z" fill="black"/>
<path d="M144.2 124.301H138.5V130.001H144.2V124.301Z" fill="black"/>
<path d="M149.899 124.301H144.199V130.001H149.899V124.301Z" fill="black"/>
<path d="M155.598 124.301H149.898V130.001H155.598V124.301Z" fill="black"/>
<path d="M161.302 124.301H155.602V130.001H161.302V124.301Z" fill="black"/>
<path d="M178.399 124.301H172.699V130.001H178.399V124.301Z" fill="black"/>
<path d="M184.098 124.301H178.398V130.001H184.098V124.301Z" fill="black"/>
<path d="M24.5008 130H18.8008V135.7H24.5008V130Z" fill="black"/>
<path d="M35.8992 130H30.1992V135.7H35.8992V130Z" fill="black"/>
<path d="M41.5984 130H35.8984V135.7H41.5984V130Z" fill="black"/>
<path d="M53.0008 130H47.3008V135.7H53.0008V130Z" fill="black"/>
<path d="M58.7 130H53V135.7H58.7V130Z" fill="black"/>
<path d="M70.0984 130H64.3984V135.7H70.0984V130Z" fill="black"/>
<path d="M75.8016 130H70.1016V135.7H75.8016V130Z" fill="black"/>
<path d="M81.5008 130H75.8008V135.7H81.5008V130Z" fill="black"/>
<path d="M92.8992 130H87.1992V135.7H92.8992V130Z" fill="black"/>
<path d="M104.302 130H98.6016V135.7H104.302V130Z" fill="black"/>
<path d="M110.001 130H104.301V135.7H110.001V130Z" fill="black"/>
<path d="M149.899 130H144.199V135.7H149.899V130Z" fill="black"/>
<path d="M155.598 130H149.898V135.7H155.598V130Z" fill="black"/>
<path d="M161.302 130H155.602V135.7H161.302V130Z" fill="black"/>
<path d="M24.5008 135.699H18.8008V141.399H24.5008V135.699Z" fill="black"/>
<path d="M30.2 135.699H24.5V141.399H30.2V135.699Z" fill="black"/>
<path d="M41.5984 135.699H35.8984V141.399H41.5984V135.699Z" fill="black"/>
<path d="M53.0008 135.699H47.3008V141.399H53.0008V135.699Z" fill="black"/>
<path d="M64.3992 135.699H58.6992V141.399H64.3992V135.699Z" fill="black"/>
<path d="M70.0984 135.699H64.3984V141.399H70.0984V135.699Z" fill="black"/>
<path d="M104.302 135.699H98.6016V141.399H104.302V135.699Z" fill="black"/>
<path d="M115.7 135.699H110V141.399H115.7V135.699Z" fill="black"/>
<path d="M127.098 135.699H121.398V141.399H127.098V135.699Z" fill="black"/>
<path d="M132.802 135.699H127.102V141.399H132.802V135.699Z" fill="black"/>
<path d="M138.501 135.699H132.801V141.399H138.501V135.699Z" fill="black"/>
<path d="M144.2 135.699H138.5V141.399H144.2V135.699Z" fill="black"/>
<path d="M149.899 135.699H144.199V141.399H149.899V135.699Z" fill="black"/>
<path d="M155.598 135.699H149.898V141.399H155.598V135.699Z" fill="black"/>
<path d="M167.001 135.699H161.301V141.399H167.001V135.699Z" fill="black"/>
<path d="M24.5008 141.4H18.8008V147.1H24.5008V141.4Z" fill="black"/>
<path d="M35.8992 141.4H30.1992V147.1H35.8992V141.4Z" fill="black"/>
<path d="M41.5984 141.4H35.8984V147.1H41.5984V141.4Z" fill="black"/>
<path d="M53.0008 141.4H47.3008V147.1H53.0008V141.4Z" fill="black"/>
<path d="M58.7 141.4H53V147.1H58.7V141.4Z" fill="black"/>
<path d="M64.3992 141.4H58.6992V147.1H64.3992V141.4Z" fill="black"/>
<path d="M75.8016 141.4H70.1016V147.1H75.8016V141.4Z" fill="black"/>
<path d="M87.2 141.4H81.5V147.1H87.2V141.4Z" fill="black"/>
<path d="M92.8992 141.4H87.1992V147.1H92.8992V141.4Z" fill="black"/>
<path d="M98.5984 141.4H92.8984V147.1H98.5984V141.4Z" fill="black"/>
<path d="M121.399 141.4H115.699V147.1H121.399V141.4Z" fill="black"/>
<path d="M132.802 141.4H127.102V147.1H132.802V141.4Z" fill="black"/>
<path d="M167.001 141.4H161.301V147.1H167.001V141.4Z" fill="black"/>
<path d="M172.7 141.4H167V147.1H172.7V141.4Z" fill="black"/>
<path d="M178.399 141.4H172.699V147.1H178.399V141.4Z" fill="black"/>
<path d="M184.098 141.4H178.398V147.1H184.098V141.4Z" fill="black"/>
<path d="M24.5008 147.1H18.8008V152.8H24.5008V147.1Z" fill="black"/>
<path d="M47.3016 147.1H41.6016V152.8H47.3016V147.1Z" fill="black"/>
<path d="M53.0008 147.1H47.3008V152.8H53.0008V147.1Z" fill="black"/>
<path d="M70.0984 147.1H64.3984V152.8H70.0984V147.1Z" fill="black"/>
<path d="M87.2 147.1H81.5V152.8H87.2V147.1Z" fill="black"/>
<path d="M98.5984 147.1H92.8984V152.8H98.5984V147.1Z" fill="black"/>
<path d="M104.302 147.1H98.6016V152.8H104.302V147.1Z" fill="black"/>
<path d="M115.7 147.1H110V152.8H115.7V147.1Z" fill="black"/>
<path d="M127.098 147.1H121.398V152.8H127.098V147.1Z" fill="black"/>
<path d="M132.802 147.1H127.102V152.8H132.802V147.1Z" fill="black"/>
<path d="M144.2 147.1H138.5V152.8H144.2V147.1Z" fill="black"/>
<path d="M149.899 147.1H144.199V152.8H149.899V147.1Z" fill="black"/>
<path d="M155.598 147.1H149.898V152.8H155.598V147.1Z" fill="black"/>
<path d="M161.302 147.1H155.602V152.8H161.302V147.1Z" fill="black"/>
<path d="M178.399 147.1H172.699V152.8H178.399V147.1Z" fill="black"/>
<path d="M184.098 147.1H178.398V152.8H184.098V147.1Z" fill="black"/>
<path d="M24.5008 152.801H18.8008V158.501H24.5008V152.801Z" fill="black"/>
<path d="M58.7 152.801H53V158.501H58.7V152.801Z" fill="black"/>
<path d="M81.5008 152.801H75.8008V158.501H81.5008V152.801Z" fill="black"/>
<path d="M87.2 152.801H81.5V158.501H87.2V152.801Z" fill="black"/>
<path d="M110.001 152.801H104.301V158.501H110.001V152.801Z" fill="black"/>
<path d="M115.7 152.801H110V158.501H115.7V152.801Z" fill="black"/>
<path d="M121.399 152.801H115.699V158.501H121.399V152.801Z" fill="black"/>
<path d="M138.501 152.801H132.801V158.501H138.501V152.801Z" fill="black"/>
<path d="M144.2 152.801H138.5V158.501H144.2V152.801Z" fill="black"/>
<path d="M149.899 152.801H144.199V158.501H149.899V152.801Z" fill="black"/>
<path d="M155.598 152.801H149.898V158.501H155.598V152.801Z" fill="black"/>
<path d="M161.302 152.801H155.602V158.501H161.302V152.801Z" fill="black"/>
<path d="M167.001 152.801H161.301V158.501H167.001V152.801Z" fill="black"/>
<path d="M172.7 152.801H167V158.501H172.7V152.801Z" fill="black"/>
<path d="M178.399 152.801H172.699V158.501H178.399V152.801Z" fill="black"/>
<path d="M70.0984 158.5H64.3984V164.2H70.0984V158.5Z" fill="black"/>
<path d="M75.8016 158.5H70.1016V164.2H75.8016V158.5Z" fill="black"/>
<path d="M92.8992 158.5H87.1992V164.2H92.8992V158.5Z" fill="black"/>
<path d="M115.7 158.5H110V164.2H115.7V158.5Z" fill="black"/>
<path d="M138.501 158.5H132.801V164.2H138.501V158.5Z" fill="black"/>
<path d="M161.302 158.5H155.602V164.2H161.302V158.5Z" fill="black"/>
<path d="M178.399 158.5H172.699V164.2H178.399V158.5Z" fill="black"/>
<path d="M70.0984 164.199H64.3984V169.899H70.0984V164.199Z" fill="black"/>
<path d="M81.5008 164.199H75.8008V169.899H81.5008V164.199Z" fill="black"/>
<path d="M104.302 164.199H98.6016V169.899H104.302V164.199Z" fill="black"/>
<path d="M110.001 164.199H104.301V169.899H110.001V164.199Z" fill="black"/>
<path d="M115.7 164.199H110V169.899H115.7V164.199Z" fill="black"/>
<path d="M121.399 164.199H115.699V169.899H121.399V164.199Z" fill="black"/>
<path d="M138.501 164.199H132.801V169.899H138.501V164.199Z" fill="black"/>
<path d="M149.899 164.199H144.199V169.899H149.899V164.199Z" fill="black"/>
<path d="M161.302 164.199H155.602V169.899H161.302V164.199Z" fill="black"/>
<path d="M167.001 164.199H161.301V169.899H167.001V164.199Z" fill="black"/>
<path d="M172.7 164.199H167V169.899H172.7V164.199Z" fill="black"/>
<path d="M75.8016 169.9H70.1016V175.6H75.8016V169.9Z" fill="black"/>
<path d="M81.5008 169.9H75.8008V175.6H81.5008V169.9Z" fill="black"/>
<path d="M92.8992 169.9H87.1992V175.6H92.8992V169.9Z" fill="black"/>
<path d="M115.7 169.9H110V175.6H115.7V169.9Z" fill="black"/>
<path d="M121.399 169.9H115.699V175.6H121.399V169.9Z" fill="black"/>
<path d="M127.098 169.9H121.398V175.6H127.098V169.9Z" fill="black"/>
<path d="M138.501 169.9H132.801V175.6H138.501V169.9Z" fill="black"/>
<path d="M161.302 169.9H155.602V175.6H161.302V169.9Z" fill="black"/>
<path d="M172.7 169.9H167V175.6H172.7V169.9Z" fill="black"/>
<path d="M178.399 169.9H172.699V175.6H178.399V169.9Z" fill="black"/>
<path d="M184.098 169.9H178.398V175.6H184.098V169.9Z" fill="black"/>
<path d="M70.0984 175.6H64.3984V181.3H70.0984V175.6Z" fill="black"/>
<path d="M92.8992 175.6H87.1992V181.3H92.8992V175.6Z" fill="black"/>
<path d="M110.001 175.6H104.301V181.3H110.001V175.6Z" fill="black"/>
<path d="M115.7 175.6H110V181.3H115.7V175.6Z" fill="black"/>
<path d="M138.501 175.6H132.801V181.3H138.501V175.6Z" fill="black"/>
<path d="M144.2 175.6H138.5V181.3H144.2V175.6Z" fill="black"/>
<path d="M149.899 175.6H144.199V181.3H149.899V175.6Z" fill="black"/>
<path d="M155.598 175.6H149.898V181.3H155.598V175.6Z" fill="black"/>
<path d="M161.302 175.6H155.602V181.3H161.302V175.6Z" fill="black"/>
<path d="M172.7 175.6H167V181.3H172.7V175.6Z" fill="black"/>
<path d="M178.399 175.6H172.699V181.3H178.399V175.6Z" fill="black"/>
<path d="M184.098 175.6H178.398V181.3H184.098V175.6Z" fill="black"/>
<path d="M70.0984 181.301H64.3984V187.001H70.0984V181.301Z" fill="black"/>
<path d="M75.8016 181.301H70.1016V187.001H75.8016V181.301Z" fill="black"/>
<path d="M81.5008 181.301H75.8008V187.001H81.5008V181.301Z" fill="black"/>
<path d="M104.302 181.301H98.6016V187.001H104.302V181.301Z" fill="black"/>
<path d="M110.001 181.301H104.301V187.001H110.001V181.301Z" fill="black"/>
<path d="M132.802 181.301H127.102V187.001H132.802V181.301Z" fill="black"/>
<path d="M138.501 181.301H132.801V187.001H138.501V181.301Z" fill="black"/>
<path d="M144.2 181.301H138.5V187.001H144.2V181.301Z" fill="black"/>
<path d="M155.598 181.301H149.898V187.001H155.598V181.301Z" fill="black"/>
<path d="M70.0984 187H64.3984V192.7H70.0984V187Z" fill="black"/>
<path d="M87.2 187H81.5V192.7H87.2V187Z" fill="black"/>
<path d="M92.8992 187H87.1992V192.7H92.8992V187Z" fill="black"/>
<path d="M121.399 187H115.699V192.7H121.399V187Z" fill="black"/>
<path d="M127.098 187H121.398V192.7H127.098V187Z" fill="black"/>
<path d="M132.802 187H127.102V192.7H132.802V187Z" fill="black"/>
<path d="M155.598 187H149.898V192.7H155.598V187Z" fill="black"/>
<path d="M172.7 187H167V192.7H172.7V187Z" fill="black"/>
<path d="M178.399 187H172.699V192.7H178.399V187Z" fill="black"/>
<path d="M70.0984 192.699H64.3984V198.399H70.0984V192.699Z" fill="black"/>
<path d="M75.8016 192.699H70.1016V198.399H75.8016V192.699Z" fill="black"/>
<path d="M81.5008 192.699H75.8008V198.399H81.5008V192.699Z" fill="black"/>
<path d="M87.2 192.699H81.5V198.399H87.2V192.699Z" fill="black"/>
<path d="M115.7 192.699H110V198.399H115.7V192.699Z" fill="black"/>
<path d="M167.001 192.699H161.301V198.399H167.001V192.699Z" fill="black"/>
<path d="M172.7 192.699H167V198.399H172.7V192.699Z" fill="black"/>
<path d="M184.098 192.699H178.398V198.399H184.098V192.699Z" fill="black"/>
<path d="M70.0984 198.4H64.3984V204.1H70.0984V198.4Z" fill="black"/>
<path d="M75.8016 198.4H70.1016V204.1H75.8016V198.4Z" fill="black"/>
<path d="M81.5008 198.4H75.8008V204.1H81.5008V198.4Z" fill="black"/>
<path d="M87.2 198.4H81.5V204.1H87.2V198.4Z" fill="black"/>
<path d="M92.8992 198.4H87.1992V204.1H92.8992V198.4Z" fill="black"/>
<path d="M110.001 198.4H104.301V204.1H110.001V198.4Z" fill="black"/>
<path d="M121.399 198.4H115.699V204.1H121.399V198.4Z" fill="black"/>
<path d="M127.098 198.4H121.398V204.1H127.098V198.4Z" fill="black"/>
<path d="M149.899 198.4H144.199V204.1H149.899V198.4Z" fill="black"/>
<path d="M161.302 198.4H155.602V204.1H161.302V198.4Z" fill="black"/>
<path d="M167.001 198.4H161.301V204.1H167.001V198.4Z" fill="black"/>
<path d="M172.7 198.4H167V204.1H172.7V198.4Z" fill="black"/>
<g clip-path="url(#clip1_649_5668)">
<path d="M53.0594 38.8008H47.3593H41.6594H41.6593H35.9594H30.2594H24.5594H18.8594V44.5008V50.2007V55.9007V61.6008V67.3007V73.0007V78.7007H24.5594H30.2594H35.9594H41.6593H41.6594H47.3593H53.0594H58.7594V73.0007V67.3007V61.6008V55.9007V50.2007V44.5008V38.8008H53.0594ZM53.0594 50.2007V55.9007V61.6008V67.3007V73.0007H47.3593H41.6594H41.6593H35.9594H30.2594H24.5594V67.3007V61.6008V55.9007V50.2007V44.5008H30.2594H35.9594H41.6593H41.6594H47.3593H53.0594V50.2007Z" fill="black"/>
</g>
<path d="M41.5992 50.2012H41.5991H35.8992H30.1992V55.9011V61.6012V67.3011H35.8992H41.5991H41.5992H47.2991V61.6012V55.9011V50.2012H41.5992Z" fill="black"/>
<g clip-path="url(#clip2_649_5668)">
<path d="M178.458 38.8008H172.758H167.058H167.058H161.358H155.658H149.958H144.258V44.5008V50.2007V55.9007V61.6008V67.3007V73.0007V78.7007H149.958H155.658H161.358H167.058H167.058H172.758H178.458H184.158V73.0007V67.3007V61.6008V55.9007V50.2007V44.5008V38.8008H178.458ZM178.458 50.2007V55.9007V61.6008V67.3007V73.0007H172.758H167.058H167.058H161.358H155.658H149.958V67.3007V61.6008V55.9007V50.2007V44.5008H155.658H161.358H167.058H167.058H172.758H178.458V50.2007Z" fill="black"/>
</g>
<path d="M166.998 50.2012H166.998H161.298H155.598V55.9011V61.6012V67.3011H161.298H166.998H166.998H172.697V61.6012V55.9011V50.2012H166.998Z" fill="black"/>
<g clip-path="url(#clip3_649_5668)">
<path d="M53.0594 164.199H47.3593H41.6594H41.6593H35.9594H30.2594H24.5594H18.8594V169.899V175.599V181.299V186.999V192.699V198.399V204.099H24.5594H30.2594H35.9594H41.6593H41.6594H47.3593H53.0594H58.7594V198.399V192.699V186.999V181.299V175.599V169.899V164.199H53.0594ZM53.0594 175.599V181.299V186.999V192.699V198.399H47.3593H41.6594H41.6593H35.9594H30.2594H24.5594V192.699V186.999V181.299V175.599V169.899H30.2594H35.9594H41.6593H41.6594H47.3593H53.0594V175.599Z" fill="black"/>
</g>
<path d="M41.5992 175.6H41.5991H35.8992H30.1992V181.3V187V192.7H35.8992H41.5991H41.5992H47.2991V187V181.3V175.6H41.5992Z" fill="black"/>
</g>
<path d="M177.833 21.5L24.5 21.5L32.5435 20.4946C35.9394 20.0701 39.042 18.3561 41.2091 15.7074L46.8318 8.83525C50.6303 4.19254 56.3122 1.5 62.3109 1.5L140.022 1.5C146.021 1.5 151.703 4.19253 155.502 8.83524L161.124 15.7074C163.291 18.3561 166.394 20.0701 169.79 20.4946L177.833 21.5Z" fill="#0088CD"/>
<path d="M82.852 15.5H76.6V7.46H77.896V14.336H82.852V15.5ZM86.7378 15.62C84.7578 15.62 83.4258 14.36 83.4258 12.524C83.4258 10.664 84.7578 9.416 86.7378 9.416C88.7298 9.416 90.0618 10.664 90.0618 12.524C90.0618 14.36 88.7298 15.62 86.7378 15.62ZM86.7378 14.468C88.1898 14.468 88.7898 13.784 88.7898 12.524C88.7898 11.252 88.1898 10.556 86.7378 10.556C85.2978 10.556 84.6978 11.252 84.6978 12.524C84.6978 13.784 85.2978 14.468 86.7378 14.468ZM94.0143 15.62C92.0463 15.62 90.7623 14.36 90.7623 12.524C90.7623 10.664 92.0463 9.416 94.0143 9.416C95.8023 9.416 97.1103 10.424 97.1103 11.912V12.032H95.8263V11.96C95.8263 11.036 95.1543 10.58 93.9903 10.58C92.6463 10.58 92.0463 11.216 92.0463 12.524C92.0463 13.808 92.6463 14.456 93.9903 14.456C95.1543 14.456 95.8263 14 95.8263 13.076V12.992H97.1103V13.124C97.1103 14.612 95.8023 15.62 94.0143 15.62ZM99.8208 15.62C98.5848 15.62 97.8048 15.044 97.8048 14.06C97.8048 13.136 98.5488 12.656 99.7248 12.524L102.437 12.236V11.888C102.437 10.904 102.005 10.556 100.865 10.556C99.7608 10.556 99.2208 10.916 99.2208 11.792V11.84H97.9368V11.792C97.9368 10.436 99.0648 9.416 100.961 9.416C102.857 9.416 103.709 10.448 103.709 11.876V15.5H102.521V14.012H102.437C102.125 15.02 101.177 15.62 99.8208 15.62ZM99.1008 13.976C99.1008 14.456 99.4248 14.684 100.169 14.684C101.525 14.684 102.437 14.18 102.437 13.004L100.097 13.268C99.4248 13.352 99.1008 13.508 99.1008 13.976ZM108.778 15.5H107.41C106.126 15.5 105.334 14.936 105.334 13.484V10.616H104.326V9.536H105.334V8.228H106.618V9.536H108.778V10.616H106.618V13.412C106.618 14.144 106.954 14.336 107.698 14.336H108.778V15.5ZM110.884 8.84H109.588V7.46H110.884V8.84ZM110.884 15.5H109.588V9.536H110.884V15.5ZM115.132 15.62C113.152 15.62 111.82 14.36 111.82 12.524C111.82 10.664 113.152 9.416 115.132 9.416C117.124 9.416 118.456 10.664 118.456 12.524C118.456 14.36 117.124 15.62 115.132 15.62ZM115.132 14.468C116.584 14.468 117.184 13.784 117.184 12.524C117.184 11.252 116.584 10.556 115.132 10.556C113.692 10.556 113.092 11.252 113.092 12.524C113.092 13.784 113.692 14.468 115.132 14.468ZM120.693 15.5H119.397V9.536H120.585V11.384H120.669C120.849 10.376 121.641 9.416 123.153 9.416C124.809 9.416 125.625 10.532 125.625 11.912V15.5H124.329V12.26C124.329 11.144 123.825 10.58 122.589 10.58C121.281 10.58 120.693 11.252 120.693 12.548V15.5Z" fill="white"/>
<defs>
<clipPath id="clip0_649_5668">
<rect width="200" height="200" fill="white" transform="translate(1 21.5)"/>
</clipPath>
<clipPath id="clip1_649_5668">
<rect width="39.9" height="39.9" fill="white" transform="translate(18.8008 38.8008)"/>
</clipPath>
<clipPath id="clip2_649_5668">
<rect width="39.9" height="39.9" fill="white" transform="translate(144.199 38.8008)"/>
</clipPath>
<clipPath id="clip3_649_5668">
<rect width="39.9" height="39.9" fill="white" transform="translate(18.8008 164.199)"/>
</clipPath>
</defs>
</svg>
