<svg width="540" height="91" viewBox="0 0 540 91" fill="none" xmlns="http://www.w3.org/2000/svg">
<path d="M520 66.5C520 66.5 520 83.5 540 85.5V86.5H0V85.5C20 83.5 20 66.5 20 66.5V21.5C20 12.6634 27.1634 5.5 36 5.5H504C512.837 5.5 520 12.6634 520 21.5V66.5Z" fill="#020617"/>
<g filter="url(#filter0_f_649_5652)">
<path d="M120.182 43.9697C126.56 42.2489 126.45 35.6939 126.45 35.6939V26.9369C126.45 16.4096 112.192 15.7627 112.192 15.7627H59.5352V75.2366H111.314C121.733 75.2366 126.996 69.1057 126.996 64.4888V51.302C126.996 50.451 126.45 46.3515 120.182 43.9697ZM71.3451 24.7402H108.818C108.818 24.7402 115.083 24.4441 115.083 29.4495V35.6939C115.083 37.5981 113.132 39.925 109.266 39.925H71.3451V24.7402ZM115.803 62.0145C115.803 63.9358 113.854 66.2626 109.985 66.2626H71.3451V48.9574H109.532C109.532 48.9574 115.803 48.6754 115.803 53.6661L115.803 62.0145Z" fill="#1E293B"/>
<path d="M137.498 15.7656H148.912V39.2935H197.174V15.7656H208.554V75.5012H197.091V48.3855H148.912V75.2385H137.498V15.7656Z" fill="#1E293B"/>
<path d="M213.732 75.4973L253.497 15.7627H262.069L301.16 75.4973H288.083L257.46 27.7656L226.661 75.4973H213.732Z" fill="#1E293B"/>
<path d="M318.168 15.7656H306.705V75.5004H318.168V15.7656Z" fill="#1E293B"/>
<path d="M323.414 15.7656H338.57L367.478 42.8436L396.593 15.7656H411.295L373.302 51.3389V75.5012H361.954V51.4113L323.414 15.7656Z" fill="#1E293B"/>
<path d="M392.111 75.4973L431.915 15.7627H440.513L479.694 75.4973H466.401L436.18 27.6594L405.241 75.4973H392.111Z" fill="#1E293B"/>
</g>
<defs>
<filter id="filter0_f_649_5652" x="44.5352" y="0.762695" width="450.16" height="89.7383" filterUnits="userSpaceOnUse" color-interpolation-filters="sRGB">
<feFlood flood-opacity="0" result="BackgroundImageFix"/>
<feBlend mode="normal" in="SourceGraphic" in2="BackgroundImageFix" result="shape"/>
<feGaussianBlur stdDeviation="7.5" result="effect1_foregroundBlur_649_5652"/>
</filter>
</defs>
</svg>
