<svg width="180" height="56" viewBox="0 0 180 56" fill="none" xmlns="http://www.w3.org/2000/svg">
<path d="M24.2807 4.4306C24.2807 4.4306 48.8014 -1.07784 51.337 19.136C52.2293 26.2524 45.6165 39.9285 28.3976 47.4513C25.8356 48.5733 11.9651 53.9536 0.585938 47.7561C0.585938 47.7561 8.53276 56.5422 25.3276 52.6903C27.0901 52.2883 44.8965 49.1387 55.4319 32.8254C56.0989 31.7873 61.8105 23.01 58.6212 13.9191C58.2634 12.8987 55.0078 5.30966 44.5961 2.9022C43.9644 2.75643 35.8144 1.02482 24.2807 4.4306Z" fill="#0088CD"/>
<path d="M38.195 20.0589H31.9533V13.8172C31.9533 12.0105 30.4911 10.5483 28.6844 10.5483H21.5504C19.7481 10.5483 18.286 12.0105 18.286 13.8172V20.0589H12.0398C10.2375 20.0589 8.77539 21.5211 8.77539 23.3278V30.4618C8.77539 32.2641 10.2375 33.7262 12.0398 33.7262H18.286V39.9724C18.286 41.7747 19.7481 43.2368 21.5504 43.2368H28.6844C30.4911 43.2368 31.9533 41.7747 31.9533 39.9724V33.7262H38.195C40.0017 33.7262 41.4638 32.2641 41.4638 30.4618V23.3278C41.4638 21.5211 40.0017 20.0589 38.195 20.0589Z" fill="#0088CD"/>
<path d="M84.094 16.016V13.232H87.67C88.422 13.232 88.998 13.04 89.398 12.656C89.814 12.272 90.022 11.752 90.022 11.096C90.022 10.488 89.822 9.984 89.422 9.584C89.022 9.184 88.446 8.984 87.694 8.984H84.094V6.056H88.126C89.246 6.056 90.23 6.272 91.078 6.704C91.926 7.12 92.59 7.704 93.07 8.456C93.55 9.208 93.79 10.072 93.79 11.048C93.79 12.04 93.55 12.912 93.07 13.664C92.59 14.4 91.918 14.976 91.054 15.392C90.19 15.808 89.174 16.016 88.006 16.016H84.094ZM81.214 23V6.056H84.982V23H81.214ZM90.43 23L85.15 15.704L88.606 14.768L94.894 23H90.43ZM96.5343 23V11.336H100.206V23H96.5343ZM98.3823 9.728C97.8063 9.728 97.3263 9.536 96.9423 9.152C96.5743 8.752 96.3903 8.272 96.3903 7.712C96.3903 7.136 96.5743 6.656 96.9423 6.272C97.3263 5.888 97.8063 5.696 98.3823 5.696C98.9583 5.696 99.4303 5.888 99.7983 6.272C100.166 6.656 100.35 7.136 100.35 7.712C100.35 8.272 100.166 8.752 99.7983 9.152C99.4303 9.536 98.9583 9.728 98.3823 9.728ZM107.736 28.232C106.456 28.232 105.328 28.008 104.352 27.56C103.392 27.128 102.632 26.512 102.072 25.712L104.328 23.456C104.744 23.952 105.208 24.328 105.72 24.584C106.248 24.84 106.88 24.968 107.616 24.968C108.528 24.968 109.24 24.744 109.752 24.296C110.28 23.848 110.544 23.216 110.544 22.4V19.424L111.168 16.88L110.616 14.336V11.336H114.216V22.304C114.216 23.504 113.936 24.544 113.376 25.424C112.816 26.304 112.048 26.992 111.072 27.488C110.096 27.984 108.984 28.232 107.736 28.232ZM107.568 22.64C106.496 22.64 105.544 22.384 104.712 21.872C103.88 21.36 103.224 20.664 102.744 19.784C102.264 18.904 102.024 17.928 102.024 16.856C102.024 15.768 102.264 14.792 102.744 13.928C103.224 13.048 103.88 12.36 104.712 11.864C105.544 11.352 106.496 11.096 107.568 11.096C108.368 11.096 109.08 11.248 109.704 11.552C110.344 11.84 110.856 12.256 111.24 12.8C111.64 13.328 111.864 13.944 111.912 14.648V19.088C111.864 19.776 111.64 20.392 111.24 20.936C110.856 21.464 110.344 21.88 109.704 22.184C109.064 22.488 108.352 22.64 107.568 22.64ZM108.264 19.376C108.776 19.376 109.216 19.264 109.584 19.04C109.968 18.816 110.256 18.52 110.448 18.152C110.656 17.768 110.76 17.336 110.76 16.856C110.76 16.376 110.656 15.944 110.448 15.56C110.256 15.176 109.968 14.872 109.584 14.648C109.216 14.424 108.776 14.312 108.264 14.312C107.768 14.312 107.328 14.424 106.944 14.648C106.56 14.872 106.264 15.176 106.056 15.56C105.848 15.944 105.744 16.376 105.744 16.856C105.744 17.304 105.848 17.728 106.056 18.128C106.264 18.512 106.552 18.816 106.92 19.04C107.304 19.264 107.752 19.376 108.264 19.376ZM124.512 23V16.352C124.512 15.744 124.32 15.256 123.936 14.888C123.568 14.504 123.096 14.312 122.52 14.312C122.12 14.312 121.768 14.4 121.464 14.576C121.16 14.736 120.92 14.976 120.744 15.296C120.568 15.6 120.48 15.952 120.48 16.352L119.064 15.656C119.064 14.744 119.256 13.944 119.64 13.256C120.024 12.568 120.56 12.04 121.248 11.672C121.936 11.288 122.728 11.096 123.624 11.096C124.536 11.096 125.336 11.288 126.024 11.672C126.712 12.04 127.24 12.56 127.608 13.232C127.992 13.888 128.184 14.656 128.184 15.536V23H124.512ZM116.808 23V5.576H120.48V23H116.808ZM132.057 23V6.512H135.729V23H132.057ZM129.417 14.456V11.336H138.369V14.456H129.417ZM142.942 23L149.662 6.056H153.07L159.718 23H155.734L150.646 8.936H152.014L146.854 23H142.942ZM146.758 19.928V16.856H155.998V19.928H146.758ZM161.362 23V11.336H165.034V23H161.362ZM163.21 9.728C162.634 9.728 162.154 9.536 161.77 9.152C161.402 8.752 161.218 8.272 161.218 7.712C161.218 7.136 161.402 6.656 161.77 6.272C162.154 5.888 162.634 5.696 163.21 5.696C163.786 5.696 164.258 5.888 164.626 6.272C164.994 6.656 165.178 7.136 165.178 7.712C165.178 8.272 164.994 8.752 164.626 9.152C164.258 9.536 163.786 9.728 163.21 9.728ZM172.588 23.24C171.484 23.24 170.5 22.976 169.636 22.448C168.788 21.92 168.116 21.2 167.62 20.288C167.14 19.376 166.9 18.336 166.9 17.168C166.9 16 167.14 14.96 167.62 14.048C168.116 13.136 168.788 12.416 169.636 11.888C170.5 11.36 171.484 11.096 172.588 11.096C173.388 11.096 174.108 11.248 174.748 11.552C175.404 11.856 175.94 12.28 176.356 12.824C176.788 13.352 177.028 13.96 177.076 14.648V19.568C177.028 20.256 176.796 20.88 176.38 21.44C175.964 21.984 175.428 22.424 174.772 22.76C174.116 23.08 173.388 23.24 172.588 23.24ZM173.236 19.928C173.764 19.928 174.22 19.816 174.604 19.592C174.988 19.352 175.292 19.024 175.516 18.608C175.74 18.192 175.852 17.712 175.852 17.168C175.852 16.624 175.74 16.152 175.516 15.752C175.308 15.336 175.004 15.008 174.604 14.768C174.22 14.528 173.772 14.408 173.26 14.408C172.748 14.408 172.292 14.528 171.892 14.768C171.508 15.008 171.196 15.336 170.956 15.752C170.732 16.168 170.62 16.64 170.62 17.168C170.62 17.696 170.732 18.168 170.956 18.584C171.18 19 171.492 19.328 171.892 19.568C172.292 19.808 172.74 19.928 173.236 19.928ZM179.308 23H175.708V19.856L176.26 17.024L175.636 14.192V5.576H179.308V23ZM81.214 51V34.056H84.982V51H81.214ZM91.702 51V34.056H95.494V51H91.702ZM83.47 43.92V40.656H92.95V43.92H83.47ZM104.025 51.264C102.825 51.264 101.737 51 100.761 50.472C99.8013 49.928 99.0413 49.192 98.4813 48.264C97.9213 47.336 97.6413 46.296 97.6413 45.144C97.6413 43.992 97.9213 42.96 98.4813 42.048C99.0413 41.136 99.8013 40.416 100.761 39.888C101.721 39.344 102.809 39.072 104.025 39.072C105.241 39.072 106.329 39.336 107.289 39.864C108.249 40.392 109.009 41.12 109.569 42.048C110.129 42.96 110.409 43.992 110.409 45.144C110.409 46.296 110.129 47.336 109.569 48.264C109.009 49.192 108.249 49.928 107.289 50.472C106.329 51 105.241 51.264 104.025 51.264ZM104.025 47.928C104.553 47.928 105.017 47.816 105.417 47.592C105.817 47.352 106.121 47.024 106.329 46.608C106.553 46.176 106.665 45.688 106.665 45.144C106.665 44.6 106.553 44.128 106.329 43.728C106.105 43.312 105.793 42.992 105.393 42.768C105.009 42.528 104.553 42.408 104.025 42.408C103.513 42.408 103.057 42.528 102.657 42.768C102.257 42.992 101.945 43.312 101.721 43.728C101.497 44.144 101.385 44.624 101.385 45.168C101.385 45.696 101.497 46.176 101.721 46.608C101.945 47.024 102.257 47.352 102.657 47.592C103.057 47.816 103.513 47.928 104.025 47.928ZM116.485 51.288C115.797 51.288 115.117 51.2 114.445 51.024C113.789 50.848 113.173 50.6 112.597 50.28C112.037 49.944 111.557 49.56 111.157 49.128L113.245 47.016C113.629 47.432 114.085 47.76 114.613 48C115.141 48.224 115.717 48.336 116.341 48.336C116.773 48.336 117.101 48.272 117.325 48.144C117.565 48.016 117.685 47.84 117.685 47.616C117.685 47.328 117.541 47.112 117.253 46.968C116.981 46.808 116.629 46.672 116.197 46.56C115.765 46.432 115.309 46.296 114.829 46.152C114.349 46.008 113.893 45.808 113.461 45.552C113.029 45.296 112.677 44.944 112.405 44.496C112.133 44.032 111.997 43.448 111.997 42.744C111.997 41.992 112.189 41.344 112.573 40.8C112.957 40.24 113.501 39.8 114.205 39.48C114.909 39.16 115.733 39 116.677 39C117.669 39 118.581 39.176 119.413 39.528C120.261 39.864 120.949 40.368 121.477 41.04L119.389 43.152C119.021 42.72 118.605 42.416 118.141 42.24C117.693 42.064 117.253 41.976 116.821 41.976C116.405 41.976 116.093 42.04 115.885 42.168C115.677 42.28 115.573 42.448 115.573 42.672C115.573 42.912 115.709 43.104 115.981 43.248C116.253 43.392 116.605 43.52 117.037 43.632C117.469 43.744 117.925 43.88 118.405 44.04C118.885 44.2 119.341 44.416 119.773 44.688C120.205 44.96 120.557 45.328 120.829 45.792C121.101 46.24 121.237 46.832 121.237 47.568C121.237 48.704 120.805 49.608 119.941 50.28C119.093 50.952 117.941 51.288 116.485 51.288ZM129.95 51.24C129.166 51.24 128.446 51.088 127.79 50.784C127.134 50.48 126.598 50.064 126.182 49.536C125.766 48.992 125.526 48.376 125.462 47.688V42.768C125.526 42.08 125.766 41.456 126.182 40.896C126.598 40.336 127.134 39.896 127.79 39.576C128.446 39.256 129.166 39.096 129.95 39.096C131.054 39.096 132.03 39.36 132.878 39.888C133.742 40.416 134.414 41.136 134.894 42.048C135.39 42.96 135.638 44 135.638 45.168C135.638 46.336 135.39 47.376 134.894 48.288C134.414 49.2 133.742 49.92 132.878 50.448C132.03 50.976 131.054 51.24 129.95 51.24ZM123.23 55.92V39.336H126.902V42.336L126.302 45.168L126.854 48V55.92H123.23ZM129.278 47.928C129.806 47.928 130.262 47.808 130.646 47.568C131.046 47.328 131.358 47 131.582 46.584C131.806 46.168 131.918 45.696 131.918 45.168C131.918 44.624 131.806 44.144 131.582 43.728C131.358 43.312 131.046 42.992 130.646 42.768C130.262 42.528 129.814 42.408 129.302 42.408C128.79 42.408 128.334 42.528 127.934 42.768C127.55 42.992 127.246 43.312 127.022 43.728C126.798 44.144 126.686 44.624 126.686 45.168C126.686 45.696 126.79 46.168 126.998 46.584C127.222 47 127.534 47.328 127.934 47.568C128.334 47.808 128.782 47.928 129.278 47.928ZM137.503 51V39.336H141.175V51H137.503ZM139.351 37.728C138.775 37.728 138.295 37.536 137.911 37.152C137.543 36.752 137.359 36.272 137.359 35.712C137.359 35.136 137.543 34.656 137.911 34.272C138.295 33.888 138.775 33.696 139.351 33.696C139.927 33.696 140.399 33.888 140.767 34.272C141.135 34.656 141.319 35.136 141.319 35.712C141.319 36.272 141.135 36.752 140.767 37.152C140.399 37.536 139.927 37.728 139.351 37.728ZM145.417 51V34.512H149.089V51H145.417ZM142.777 42.456V39.336H151.729V42.456H142.777ZM157.984 51.24C156.912 51.24 155.952 50.976 155.104 50.448C154.272 49.92 153.608 49.2 153.112 48.288C152.632 47.376 152.392 46.336 152.392 45.168C152.392 44 152.632 42.96 153.112 42.048C153.608 41.136 154.272 40.416 155.104 39.888C155.952 39.36 156.912 39.096 157.984 39.096C158.768 39.096 159.472 39.248 160.096 39.552C160.736 39.856 161.256 40.28 161.656 40.824C162.056 41.352 162.28 41.96 162.328 42.648V47.688C162.28 48.376 162.056 48.992 161.656 49.536C161.272 50.064 160.76 50.48 160.12 50.784C159.48 51.088 158.768 51.24 157.984 51.24ZM158.728 47.928C159.512 47.928 160.144 47.672 160.624 47.16C161.104 46.632 161.344 45.968 161.344 45.168C161.344 44.624 161.232 44.144 161.008 43.728C160.8 43.312 160.496 42.992 160.096 42.768C159.712 42.528 159.264 42.408 158.752 42.408C158.24 42.408 157.784 42.528 157.384 42.768C157 42.992 156.688 43.312 156.448 43.728C156.224 44.144 156.112 44.624 156.112 45.168C156.112 45.696 156.224 46.168 156.448 46.584C156.672 47 156.984 47.328 157.384 47.568C157.784 47.808 158.232 47.928 158.728 47.928ZM161.2 51V47.856L161.752 45.024L161.2 42.192V39.336H164.8V51H161.2ZM167.386 51V33.576H171.058V51H167.386Z" fill="#0088CD"/>
</svg>
